<mxfile host="app.diagrams.net" modified="2022-11-24T08:34:32.986Z" agent="5.0 (Windows NT 10.0; Win64; x64) AppleWebKit/537.36 (KHTML, like Gecko) Chrome/107.0.0.0 Safari/537.36" version="20.6.0" etag="V4a_CDhUv1iW-Ayt--eF" type="github">
  <diagram id="v58sg-yMiExmZ_VyC6lh" name="Page-1">
    <mxGraphModel dx="2249" dy="766" grid="1" gridSize="10" guides="1" tooltips="1" connect="1" arrows="1" fold="1" page="1" pageScale="1" pageWidth="827" pageHeight="1169" math="0" shadow="0">
      <root>
        <mxCell id="0" />
        <mxCell id="1" parent="0" />
        <mxCell id="d2lQ3OjOSVRbuML1G_QZ-1" value="" style="shape=image;verticalLabelPosition=bottom;labelBackgroundColor=default;verticalAlign=top;aspect=fixed;imageAspect=0;image=data:image/jpeg,/9j/4AAQSkZJRgABAgAAAQABAAD/2wBDAAgGBgcGBQgHBwcJCQgKDBQNDAsLDBkSEw8UHRofHh0aHBwgJC4nICIsIxwcKDcpLDAxNDQ0Hyc5PTgyPC4zNDL/2wBDAQkJCQwLDBgNDRgyIRwhMjIyMjIyMjIyMjIyMjIyMjIyMjIyMjIyMjIyMjIyMjIyMjIyMjIyMjIyMjIyMjIyMjL/wAARCALABDQDASIAAhEBAxEB/8QAHwAAAQUBAQEBAQEAAAAAAAAAAAECAwQFBgcICQoL/8QAtRAAAgEDAwIEAwUFBAQAAAF9AQIDAAQRBRIhMUEGE1FhByJxFDKBkaEII0KxwRVS0fAkM2JyggkKFhcYGRolJicoKSo0NTY3ODk6Q0RFRkdISUpTVFVWV1hZWmNkZWZnaGlqc3R1dnd4eXqDhIWGh4iJipKTlJWWl5iZmqKjpKWmp6ipqrKztLW2t7i5usLDxMXGx8jJytLT1NXW19jZ2uHi4+Tl5ufo6erx8vP09fb3+Pn6/8QAHwEAAwEBAQEBAQEBAQAAAAAAAAECAwQFBgcICQoL/8QAtREAAgECBAQDBAcFBAQAAQJ3AAECAxEEBSExBhJBUQdhcRMiMoEIFEKRobHBCSMzUvAVYnLRChYkNOEl8RcYGRomJygpKjU2Nzg5OkNERUZHSElKU1RVVldYWVpjZGVmZ2hpanN0dXZ3eHl6goOEhYaHiImKkpOUlZaXmJmaoqOkpaanqKmqsrO0tba3uLm6wsPExcbHyMnK0tPU1dbX2Nna4uPk5ebn6Onq8vP09fb3+Pn6/9oADAMBAAIRAxEAPwD20axHmEOm3cG83knyyCRjgc8q3/fJqaLVLSZFdJG2ttxlCM7m2j9acdPtTJI5i+aRg7EMRkgY9eOCfzJ61GukWSMrCN8hg+fNb5iCCCeeeQOtABFqtvPf/ZItxkAJfII246dfXn8q47X/ABbqU16unaZNFYhY/OnulUTuqlmVUUEbVYlSTnOBjjnjs7fSrO0n86GIrJt2Al2OBknABPua53xJ4Okv7m31DSZIYryGPyWinLCOaPcWALDJUqWYg4P3iMdMXCykubYiopOL5dzK0PxZfWGqRWmr6gb+yuEJjunhWOSNwu/DbAFYFQx4AIx3zx2U2s28N4kBztIfdIwIUbcZAOOev6Vxvg/w4+s2Wn6/qYhjt7izWS1s4JGbYsiD5nc4JbYduAABluWyMdtLpNnLKZWjJc7sZclRu64XOOfpRUcXL3dhUlJQXPuNbWbNEZnMq7SQwMLZXChiSMdMMDSXGqLHbJPFGWVnZGMmUCEZzuODjkY5GPekt9IgjilSctM0u7cSzdGUKRySeijvVh7C3kABV1wzOCkjKct15Bzz6VBoV31q1hDtOHjRFVi23cPmGeoyKemrWjglWkJ4wvlNls5xgY5+635Gkl0WwmwHgOBH5WFkZRtxjHB9OKk/s212gCMrgKAVdgQFzjBByPvN+dAFeHXbOWFXYujmFZimxiQDt6cc8sB+NOj1eGaQrEjkER7Cyld28sOMjoApOadDothBgRwkALtA8xiAMqe59VX8qcNLtozuiDI25CDuLYCkkAAngcsMD1oAh/tZwsMxtGNtM+1HRtze2Vx3x2z74p8utWMPlb5WxKoaPEbHcCMjHHpUq6ZaLOswjbcjFkBkYhSeuBnAqP8AsWwLRt5J/d7do8xsDaNo4zzxxQBGdYU3ccCQli5IySRg7sY5HXqT9O9LHq6yRSyeSR5ciJjd13Ntqd9OgLiRV2SB94bJPOcn8/60n9lWYkVxGwIIOBI2CQ24EjODgnPNADYb2djeedbxotscEpKWLHaG7qOzCo4NUd7qC3mtxG8yB1KSbhtIJ9Bzx+tXfs8QEw2/645k5PzHaF/kBVdNJsk5EbMdu3Lysx24Ixknpgn86AI/7Skknlgt7YSSRFtwaTaMA4GODyeePbrUVrr0N46JHEwMjgR7jjcpUsG/TBHb8RVn+yrTYF2yDG7LCZwzZ5OWzk/jTv7NtFaJ0hVXhcvGRn5WIwfwx26UALY3yX0bMqlSuMg+4B/rj6g1aqtZWSWUbKjFi2Mk+wA/pn6k1ZoAKKKKACiiigAooooAKKKKACiiigDi/GeoarDr2kWGn6rcafFPa3U0rQRxMzlGgCj94jYH7xumKyPN8Q/9Ddqv/gPZ/wDxitHxl/yOOhf9g++/9GWtVK9DDUoSp3aPIxlepCraLsiHzfEP/Q3ar/4D2f8A8YrObxHfrefZj411ff5ghL/YrbyxJ02GT7PtDZ4xnOeK165yxj1LT7YaWmmebi5ZhdO6eUY2kL7iN27cAemPvd8c1tKjTX2TCOJqveRq2mp6xehjb+MdWdV4J+y2oHUjgm355U1Y83xD/wBDdqv/AID2f/xiuNGhawtjeRiJgryxsYw6HzUEsjMoBOOjKcEgHp606Pw3dzW8iz2rsgtLkQRyOg8uRmUpgKcKeCRgnbnqKhU4fyFutU/5+HWR3muTPKkfjHU2aJ9kgEFn8rYDYP7j0YH8ak83xD/0N2q/+A9n/wDGKytAsJrG51Rp7Xy3uJo5fNG0+Z+6QHoc5DB859cjOa260VCm1rEzliaqdlIh83xD/wBDdqv/AID2f/xiuq8E395qPheKe/uWublbm6hMzoqs4juJI1JCgLnao6AVzdbvw9/5FEf9hC//APSuauXFU4wS5UdmBrTqSak7nUUUUVxHphRRRQAUUUUAFFFFABRRRQAUUUUAFFFFABRRRQAUUUUAcF4l1DWW8ZT6fZ63dWFtDp9vMEt4oG3O8k6sSZI2PSNemKo+b4h/6G7Vf/Aez/8AjFWde/5KHff9gqz/APRt1TK9LD0oSpptHjYvEVYVnGL0/wCAQ+b4h/6G7Vf/AAHs/wD4xVS91nVNPz9q8aapHiGSc/6NaH92m3ceLftuX860a5rxTpV7qXmfZIfMzpd5bj5wP3khi2Dk99rc9OK0lRgldRMYYmq5WlLQ077WtU03P2vxpqkeIZJz/otofkTbuPFv23L+dI2uakn2HPjbU/8ATyBbYtrQ+Zld3H+j+nPNYet+G7p5JDZG6uQ+m3UH7+53YdzFtA3HjO1uenHPaiLQtQXVLRnhBtrC722pDjiFt7E4z2zGmOvyZ6GodKN7cpoq8+W/OdT5viH/AKG7Vf8AwHs//jFHm+If+hu1X/wHs/8A4xU1Fa+wp9jH61W/mIfN8Q/9Ddqv/gPZ/wDxiuz8J31xqfg7Q9Qu5PMubrT4Jpn2gbnaNWY4HA5J6VyVdL4E/wCSeeGv+wVa/wDopa48XTjC3Kj0MBVnU5ud32/U6CiiiuM9EKKKKACiiigAooooAKKKKACiiigAooooAKKKKACiiigArgvEuoay3jKfT7PW7qwtodPt5glvFA253knViTJGx6Rr0xXe157r3/JQ77/sFWf/AKNuq2w8VKokznxc5QouUXr/AMEreb4h/wChu1X/AMB7P/4xUF3qOs2Ns1xc+MdVSJSAT9mtCSScAACDJJJAAHJzV2s7XLd7rS2jS0+1fOjGISeW5AYHKNkYYYyDkcjqK9F0KdtInjxxNVtJyYtjq2r6ikjW3jDVyY22uklnaxuhxnBVrcEcEHkVa83xD/0N2q/+A9n/APGK42fStZuQpeG7ksVn3C2ujDJOw2EZb5trKDjAZie/YVZsvDVxNFc/bRIs5sooraeSQO0TjfnGO4ymT3wOtZqnD+Q1daotfaHU+b4h/wChu1X/AMB7P/4xR5viH/obtV/8B7P/AOMVydzpOrXdjb3F1blpprl57y0QpJgbdqDDMFYKAvGepJHNXvD+iz2t6bq/idpEtYo4XlkDsh+fcOO+CoJ746nFNUoN25ROvVSvzm95viH/AKG7Vf8AwHs//jFHm+If+hu1X/wHs/8A4xU1Faewp9jL61W/mOt8J31xqfg7Q9Qu5PMubrT4Jpn2gbnaNWY4HA5J6VsVz/gT/knnhr/sFWv/AKKWugrxz6EKKKKACiiigAooooAKKKKACiiigAooooAKKKKACiiigAooooAKKKKACiiigAooooAK841HUddufFGuQQeIL2ytrS6jhhhghtyoBt4ZCcvEzE7nbvXo9eaS/wDI3eKP+whF/wCklvXRhoqVSzOXGTlCleLsw83xD/0N2q/+A9n/APGKPN8Q/wDQ3ar/AOA9n/8AGKmor0PYU+x5H1qt/MYsPia+nuRAnjTWQ5d41Z7C3RGZc7grG2CsRtboexosvE17ftGsHjTWAZU8yLzbC3i8xcZyu62G7jnjPFYNrouprcQL9kvkaK+mmLzXEbW5RmkOVQMW3FWGOBgmrdjZalcadoVjPpk1p/ZqI0ssskZ3MsLR7U2Mx5LdTjge9YqlH+U6HWmtp/ijUsfEt9qMkUdv401jdMm+LzbC3i8xcZype2G7jnjNafm+If8AobtV/wDAez/+MVzemWeozWnh+zuNNmsxpio00sskZ3MsRj2psZjyW6nHA966qrhRg1rEyqYiqnpIh83xD/0N2q/+A9n/APGKo61qXiXTdB1G/h8Wak0ttbSTIr29oVJVSQDiAHHFalZHiv8A5E7W/wDsHz/+i2pyoU7PQUMTWckuY9coooryT3wooooAbIpeNlV2QkEB1xlfcZBH5isH/hHtU/6HPXP+/Nl/8j10FZeuawNJtYxFCbm/uX8q0tQcGWTGevZQMlm7AH6UAcv4L0LUZvAvh6VPFmswI+mWzLFHFZlUBiX5RugJwOnJJ9Sa7a1hkt7WOGW5lunQYM0wUO/udiqv5AVz/g2ZrLSoPDV4oi1DSLeK3Zc5E0SrtSZD3VgvPowI7c9NQAUUUUAFFFFABRRRQAUUUUAFFFFABRRRQAUUUUAFFFFABRRRQAUUUUAFFFFABRRRQAUUUUAcL4y/5HHQv+wfff8Aoy1qpVvxl/yOOhf9g++/9GWtVK9TCfwzw8f/ABgooorpOIKKKKACiiigArd+Hv8AyKI/7CF//wClc1YVbvw9/wCRRH/YQv8A/wBK5q4sb8KPSy345HUUUUV5564UUUUAFFFFABRRRQAUUUUAFFFFABRRRQAUUUUAFFFFAHnuvf8AJQ77/sFWf/o26plP17/kod9/2CrP/wBG3VMr1sN/CX9dTwMb/Hl8vyCiiitzlCiiigAooooAK6XwJ/yTzw1/2CrX/wBFLXNV0vgT/knnhr/sFWv/AKKWuHG/Z+Z6uWfa+X6nQUUUVwHqBRRRQAUUUUAFFFFABRRRQAUUUUAFFFFABRRRQAUUUUAFee69/wAlDvv+wVZ/+jbqvQq8917/AJKHff8AYKs//Rt1W+G/ir+uhy43+BL5fmMooor1jwAooooAKKKKACiiigDpfAn/ACTzw1/2CrX/ANFLXQVz/gT/AJJ54a/7BVr/AOilroK8I+pCiiigAooooAKKKKACiiigAooooAKKKKACiiigAooooAKKKKACiiigAooooAKKKKACvNJf+Ru8Uf8AYQi/9JLevS680l/5G7xR/wBhCL/0kt66cJ/EOLH/AMEmooor1DwwooooAKKKKACsjxX/AMidrf8A2D5//RbVr1keK/8AkTtb/wCwfP8A+i2pS+Fl0/jR65RRRXhn0wUUUUAMmk8mCSXY77FLbUGWOB0A7msTQ9NupLqTXdXQLqNwmyKDORZw5yIwe7HguR1OB0UUuu3U1trfhpUmeOGbUHilAbCuPs0xVT6/MoIHqBWBceINWtNS1wWI+1INV8lNyGcxItpCzBIgysw3k525wSTg80AdJr2kS36w3thIsGrWZL2szfdOfvRvjqjYAPpwRyBV/TrqS90+C4mtZbSV1y8EuN0bdxkcHnuOvWuO0nxze6tqNu8FpE+my3CW3mIrfNujD+YrsRxkjCbclec9q6Dw1qOoatYy3t6tskbTyxwRwhshUkZMsSeSdueAMZ70AbVFFFABRRRQAUUUUAFFFFABRRRQAUUUUAFFFFABRRRQAUUUUAFFFFABRRRQAUUUUAFFFFAHF+M9P1SbXtIv9P0qfUIoLa6hlWCSJWQu0BU/vHUEfu26ZrI8rxD/ANCjqv8A4EWf/wAfr0uitoV5wVkc1XC06suaW55p5XiH/oUdV/8AAiz/APj9HleIf+hR1X/wIs//AI/XpdFX9bqGf1CieWXtzrGnwLNdeFdVjjaWOEHzrQ5eR1jQcT92ZR7Z54qx5XiH/oUdV/8AAiz/APj9dr4i0+fUtMhgtwpdL+znO44+SK5jkb/x1DWtR9bqB9QonmnleIf+hR1X/wACLP8A+P0eV4h/6FHVf/Aiz/8Aj9el0UfW6gfUKJ5p5XiH/oUdV/8AAiz/APj9dV4JsLzTvC8UF/bNbXLXN1MYXdWZBJcSSKCVJXO1h0JroaKzqVpVFaRtRw0KTbiFFFFZG4UUUUAFFFFABRRRQAUUUUAFFFFABRRRQAUUUUAFFFFAHBeJdP1lfGM+oWWiXV/bTafbwh7eWBdrpJOzAiSRT0kXpnvVHyvEP/Qo6r/4EWf/AMfr0uit4YicI8qOWphKVSTlLc808rxD/wBCjqv/AIEWf/x+jyvEP/Qo6r/4EWf/AMfr0uiq+t1CPqFE8suLnWLSe0hn8K6qkl3KYYB51od7hGkI4n4+VGPPp64qx5XiH/oUdV/8CLP/AOP12ur6fPeanoM8IUpZX7TzZOMIbaePj1+aRa1qPrdQPqFE808rxD/0KOq/+BFn/wDH6PK8Q/8AQo6r/wCBFn/8fr0uij63UD6hRPNPK8Q/9Cjqv/gRZ/8Ax+uz8J2Nxpng7Q9Pu4/LubXT4IZk3A7XWNVYZHB5B6VsUVnUqyqW5jejh4Ub8nUKKKKyNgooooAKKKKACiiigAooooAKKKKACiiigAooooAKKKKACuC8S6frK+MZ9QstEur+2m0+3hD28sC7XSSdmBEkinpIvTPeu9oqoTcJcyIqU41IuMtjzTyvEP8A0KOq/wDgRZ//AB+jyvEP/Qo6r/4EWf8A8fr0uit/rdQ5fqFE808rxD/0KOq/+BFn/wDH6r3FzrFpPaQz+FdVSS7lMMA860O9wjSEcT8fKjHn09cV6nWTq+nz3mp6DPCFKWV+082TjCG2nj49fmkWj63UD6hROK8rxD/0KOq/+BFn/wDH6PK8Q/8AQo6r/wCBFn/8fr0uij63UD6hRPNPK8Q/9Cjqv/gRZ/8Ax+jyvEP/AEKOq/8AgRZ//H69Loo+t1A+oUTH8J2Nxpng7Q9Pu4/LubXT4IZk3A7XWNVYZHB5B6VsUUVzHaFFFFABRRRQAUUUUAFFFFABRRRQAUUUUAFFFFABRRRQAUUUUAFFFFABRRRQAUUUUAFec6jp2u23ijXJ4PD97e213cxzQzQTW4UgW8MZBDyqwO5G7V6NRVwm4O6M6tKNWPLLY808rxD/ANCjqv8A4EWf/wAfo8rxD/0KOq/+BFn/APH69Lorb63UOb6hRPNPK8Q/9Cjqv/gRZ/8Ax+q73OsR6jDYN4V1UXU0Uk0aedafMiFAxz5+ODIn5+xr1Osm40+eTxdp2pKF+zwWF1A5zzvkkt2Xj6RN+lH1uoH1CicV5XiH/oUdV/8AAiz/APj9HleIf+hR1X/wIs//AI/XpdFH1uoH1CieaeV4h/6FHVf/AAIs/wD4/VHWtN8S6loOo2EPhPUllubaSFGe4tAoLKQCcTk45r1mih4qo1YawNFO4UUUVzHYFFFFAFe+sLPU7RrW/tILq3fG6KeMOpx04PFcf4olsdHbStBsvC2k3sE0c9wkFwwhih8sxqSoET8nzvQd/Wu4rhfGX/I46F/2D77/ANGWtaUoqU0mZV5uFNyW6E8P6lHfeL4YL3wvpNleGzkmhvLafznCxmOPbkwoRxKMYJ4BFdvDBDbRCKCJIowSdiKFGSck4HqST+NcDoP/ACUOx/7BV5/6Nta9Cp1oKE3FE4apKpSUpbhRRRWRuFFFFABRRRQAUUUUAZDa6B4qi0P7FON9tJP9qYbYyUMY2r3b/WDJ6Dpyc4TWPEMOl+HP7Zjj86FvK2eYxiUB2VQzkjKKN2WJHAB4qzPpnna/Zap52Ps1vPB5e373mNEc5zxjyumOc+3LL2x1C70iOBNSWC/TYxuI4P3bspBIMZbOxuQV3ZweueaAKNp4jlewFze21pADcxwrLFeebBKrkDckgUE4zjBUcjrjmo5/GulfZxJZSG5k822TyyjxkpPMkSyDcvK5bII4OOD3rPbwIZrC/jubm2El5cwzyx2Vr5EREfYLubDN0LkntxxVDTPDutatcE6oz20VvDYxxNJborMYLgTFSFkbJOwAtkD5sheOQDe1HxxpNrpmoXNrKLqazt5pxEQ0ay+UcOFcrg4PBxnGeRSaZ4vjuJNQTUEs4VsoUnkns7v7VDtYsMFgqkMNucY6EGqt/wCBftuirpw1EJthvYvMMGf+Phi2cbh93Prz7UN4Kmul1Nry/tEnvLL7GpsLHyEUZLBmUyMXIPTkcZHfNAGpqfirT9M1G2sXE800s5hcQwu/lHyml52g9Qo/PPY4isPGmj3tjp9w8zwNewRTCOSJ/wB0JOFDtjC5OQCSA3bNVY/Cl+2qJqdzqsEl19uW6cJaFYyogaAoB5hIJViQxJwexHFVLbwLeW+ljTf7Yha1lt7e3u8WhDSLCNqlD5nyEoFByG5BIxnFAGtP410KG2u5hdtL9millKpEw8zyztdUJADMGwCAeCRnFQ3XiLV9Msrm61PQUijit2nRoLzzRkEfI5KLtbnIxuHB59YpvA8Fzp8FlcXjNFGl4jFI9rHz23ZBycFT065x2p934c1nVbO4ttT16J0e2aBFtrMxKSxH7xwZG3MMcAbQMn2wAXG8V6Xb2kU95cpF5hlIEYeUBI3Ks5IX5VHGWIAGevepNE8RWmtJtjIS4HmFoQd21VkaMMSBgbtpIB98ZwazYvCd7Y+XJpurRwXHlzwySSWvmDZJKZQVG4YZSxGTkHuKl8OeEh4bu5pra9Lx3Rke6jMWPNlMhZZBz8pCsVP94BemKAOlooooAKKKKACiiigAooooAKKp6tqUOj6NfapcK7QWdvJcSLGAWKopYgAkDOB61leF/G/h7xhbebo2oxzSBcvbt8ssf1Q845xkZHvQA/xfI8ei27Ruyk6ppy5U44N5CCPxBIrerL1+/wD7O06KfyI5t17aQbX6DzLiOPd9Rv3D3ArUoAKKKKACiiigAooooAKKKKACiiigAooooAKKKKACiiigAooooAKKKKACiiigAooooAKKKKAMHX5HTWvCyq7KH1R1YA43D7HcnB9eQD+Fb1Zeq3/2PUdDg8iOT7ZetBubrHi3mk3L7/u9v0Y1qUAFFFFABRRRQAUUUUAFFFFABRRRQAUUUUAFFFFABRRRQAUUUUAFFFFABRRRQAUUUUAFFFFABWDr8jprXhZVdlD6o6sAcbh9juTg+vIB/Ct6svVb/wCx6jocHkRyfbL1oNzdY8W80m5ff93t+jGgDUooooAKKKKACiiigAooooAKKKKACiiigAooooAKKKKACiiigAooooAKKKKACiiigAooooAKKKKACiiigAooooAKKKKACsG7kcePtIjDsEbS75iueCRLaYOPbJ/M1vVlz3/l+KtP07yIz59lcz+cfvL5bwLtHsfMyf8AdFAGpRRRQAUUUUAFFFFABRRRQAVwvjL/AJHHQv8AsH33/oy1ruq4Xxl/yOOhf9g++/8ARlrWtD+IjnxX8GRl2cepS+OtPXS7u0tp/wCzLws91bNOpXzbbgKsiEHOOc9jxzx132Pxh/0HdD/8E03/AMlVzug/8lDsf+wVef8Ao21r0KqxP8V/10JwX8CPz/M5/wCx+MP+g7of/gmm/wDkqj7H4w/6Duh/+Cab/wCSq6CisDqOf+x+MP8AoO6H/wCCab/5Ko+x+MP+g7of/gmm/wDkqugooA5/7H4w/wCg7of/AIJpv/kqj7H4w/6Duh/+Cab/AOSq6CigDn/sfjD/AKDuh/8Agmm/+SqPsfjD/oO6H/4Jpv8A5KroKKAOf+x+MP8AoO6H/wCCab/5Ko+x+MP+g7of/gmm/wDkqugooA5/7H4w/wCg7of/AIJpv/kqj7H4w/6Duh/+Cab/AOSq6CigDn/sfjD/AKDuh/8Agmm/+SqPsfjD/oO6H/4Jpv8A5KroKKAOf+x+MP8AoO6H/wCCab/5Ko+x+MP+g7of/gmm/wDkqugooA5/7H4w/wCg7of/AIJpv/kqj7H4w/6Duh/+Cab/AOSq6CigDn/sfjD/AKDuh/8Agmm/+SqPsfjD/oO6H/4Jpv8A5KroKKAOf+x+MP8AoO6H/wCCab/5Ko+x+MP+g7of/gmm/wDkqugooA5/7H4w/wCg7of/AIJpv/kqj7H4w/6Duh/+Cab/AOSq6CigDn/sfjD/AKDuh/8Agmm/+SqPsfjD/oO6H/4Jpv8A5KroKKAOf+x+MP8AoO6H/wCCab/5Ko+x+MP+g7of/gmm/wDkqugooA4Pxpa+Kl8C+IWuNZ0aSAaZcmRI9JlRmXymyAxuSAcd8HHoa+XPDHhzxDq+qQ/2HBdC6Qh45IMqyejAjG0f7RIGe4r7YvrK31LT7mxu4/NtrmJoZoySNyMCGGRzyCelRabpVho9oLXTrSG2gBzsiXGT3J9T7nk0AeSw/wDCexJ/wjeu6zps0tstnqKzSWjSyfLOzIjMsiA4NuMnBJ3H5u9dz4T13V9R1jU9P1WSxlNrb288clrbvD/rGmUghpHzjyhzkdTWVr3/ACUO+/7BVn/6NuqseDf+Rx13/sH2P/oy6rqdOPsFO2pxRrTeKdO+n/AO6ooorlO0KKKKACiiigAooooAKKKKACiiigAooooAKKKKACiiigAooooAKKKKACiiigAooooAy9Vt7WbUdDkuLnypYL1pLdP+e0n2eZSv/fDO3/Aa1KxdbtJ7jVvDcsMTOltqLyzMP4ENrcJk/wDAnUfjW1QAUUUUAFFFFABRRRQAUUUUAFFFFABRRRQAUUUUAFFFFABRRRQAUUUUAFFFFABRRRQAUUUUAFZeq29rNqOhyXFz5UsF60lun/PaT7PMpX/vhnb/AIDWpWLrdpPcat4blhiZ0ttReWZh/AhtbhMn/gTqPxoA2qKKKACiiigAooooAKKKKACiiigAooooAKKKKACiiigAooooAKKKKACiiigAooooAKKKKACiiigAooooAKKKKACiiigArLnt7VvFWn3L3O28jsrmOKD+/GzwF2/4CVjH/A61Kxbq0nfxtpd4sTG3i068ieTsrvJbFR+IRvyNAG1RRRQAUUUUAFFFFABRRRQAVwvjL/kcdC/7B99/6Mta7quF8Zf8jjoX/YPvv/RlrWtD+IjnxX8GRX0H/kodj/2Crz/0ba16FXnug/8AJQ7H/sFXn/o21r0KqxP8V/10JwX8CPz/ADCiiisDqCiiigAooooAKKKKACiiigAooooAKKKKACiiigAooooAKKKKACiiigAooooAKKKKACiiigAooooA8917/kod9/2CrP8A9G3VWPBv/I467/2D7H/0ZdVX17/kod9/2CrP/wBG3VWPBv8AyOOu/wDYPsf/AEZdV2v/AHZf11PNj/vr/rojuqKKK4j0gooooAKxPEmr32j29pLZ2aTpLdwQzSSPhYkeVIyQOrN8/Hbgknsduqep6dDqtottOzqgmimyhAO6ORZF6g8ZQZ9s0AUvFWq3uieGr/UrCzS6nt4HlCySbEUKpYs3cjjoOSSOnUaUVwZJjEYZBiNX8zA2NnPyg5zkY5+oqvf6Umpadqdhc3M7QX8bxMBtBiRk2EIdv1b5s8k9sAWY4GjuGk8+UoY1QQnbtUgn5hxnJyAcnHyjAHOQDkIPEmuJp/8AbVz/AGfJpv8AaL2b28ULpMiC5MAfeXIYggMRtHGcVeTxnaILSKSOe4uLlptq28YUhY5TGTtZ8tg44Xce+AKfb+DYIXVJNV1G4sUu2vFsZDEIhIZTKDlYw5Ac5ALEcDrio77wNYX+nJp8l5eC0Hm74/3bB/McuT8yHawLEBl2sB3zggAg1Dx1BFpd1cWtpcI6pMbaS5jAjneJtrqMNnjB6gZAJGcVo3viu0sNVWwmtL3c7mOOQIu2VwhfaoLBjkAjdt254zmsqz8CLLprW+rX91L81z5USOmyASyMxKnZknacfMTjJxV1/Bdl/bTaslzcmb7V9sEX7sKZAu3BbZvK47FiBnjoMAFfVvGJ+zWz6MN6SrDNNeNayXEdvDKrsjGOMhmJKAEAjaHBJxRH4xjt9Jsb6+u7OaOWaaMy2KM6zBFYjaN2UY4A2ncQePek0nwYbbS/mup9P1Br2S8ElnKH8ndlViG9SrKse1cFccZGKff+CLafSHhWae5vBLLciWeUIZp3QruYouFwMY2qMbRwehAJ/wDhM7YXP2M6XqYv/O8gWnlpvL+WZOu/ZjaM53Y7daij8a2zPf3jK39l22lW+oBhGfN/ePMrArnt5Q49c9aZoPhe7i1OXVtXuZpLz7V50SmVXOPJ8r5yqKvdjhQO3J5qzH4K02OyurQT3fl3NjHYuS65EaPIwI+X72ZWz24HHqAZ2s+Nmt2tIYZINJla+Nrcvq0W5YR5DSqcJIAd2FA+bucjPFOtfHPkaNNe6jayTxQySj7XZR7YJYkx+8XzGHXJG0FidrYyK238N2b66mrmSf7QtwLgLuGzcIWhxjGcbWJ69cfSq+v+EbLxFcrPc3FxEwt3tj5QjOUfGcb0YqeOq4P5DAA1/GempcqnlXRtmn+z/bRGPJ8zZvKk5zwAcnGM8ZzxU2h+KtP1+Z4bUSpIIlnRZduXjY4DDBOPocMMjIGawW8GXr6xBBvxosd19peM3AIl/dFDlPLBDEnn59vUgZPG/oXhm20FmaG6uJ/3SwoJRGAiL0HyKuT/ALTZPA5oA26KKKACiiigAoqjrOs6f4f0qbU9UuRbWUJUSSlSQu5go4AJ6sBU9ne2mo2kd3Y3MNzbSDKSwuHVh7EcGgDM1u7nt9W8NxQysiXOovFMo/jQWtw+D/wJFP4VtVl6rcWsOo6HHcW3myz3rR27/wDPGT7PMxb/AL4V1/4FWpQAUUUUAFFFFABRRRQAUUUUAFFFFABRRRQAUUUUAFFFFABRRRQAUUUUAFFFFABRRRQAUUUUAFYut3c9vq3huKGVkS51F4plH8aC1uHwf+BIp/CtqsvVbi1h1HQ47i282We9aO3f/njJ9nmYt/3wrr/wKgDUooooAKKKKACiiigAooooAKKKKACiiigAooooAKKKKACiiigAooooAKKKKACiiigAooooAKKKKACiiigAooooAKKKKACsW6u508baXZrKwt5dOvJXj7M6SWwU/gHb8zW1WXPcWq+KtPtntt15JZXMkU/9yNXgDr/wItGf+AUAalFFFABRRRQAUUUUAFFFFABXC+Mv+Rx0L/sH33/oy1ruq4Xxl/yOOhf9g++/9GWta0P4iOfFfwZFfQf+Sh2P/YKvP/RtrXoVee6D/wAlDsf+wVef+jbWvQqrE/xX/XQnBfwI/P8AMKKKKwOoKKKKACiiigAooooAKKKKACiiigAooooAKKKKACiiigAooooAKKKKACiiigAooooAKKKKACiiigDz3Xv+Sh33/YKs/wD0bdVX0CbWIvGOsf2TY2N1nT7LzPtd49vt/eXOMbYnz364xgdc8WNe/wCSh33/AGCrP/0bdVY8G/8AI467/wBg+x/9GXVdr/3Zf11PNj/vr/roja+2eMP+gFof/g5m/wDkWj7Z4w/6AWh/+Dmb/wCRa6CiuI9I5/7Z4w/6AWh/+Dmb/wCRaPtnjD/oBaH/AODmb/5FroKKAOf+2eMP+gFof/g5m/8AkWj7Z4w/6AWh/wDg5m/+Ra6CigDn/tnjD/oBaH/4OZv/AJFo+2eMP+gFof8A4OZv/kWugooA5/7Z4w/6AWh/+Dmb/wCRaPtnjD/oBaH/AODmb/5FroKKAOf+2eMP+gFof/g5m/8AkWj7Z4w/6AWh/wDg5m/+Ra6CigDn/tnjD/oBaH/4OZv/AJFo+2eMP+gFof8A4OZv/kWugooA5/7Z4w/6AWh/+Dmb/wCRaPtnjD/oBaH/AODmb/5FroKKAOf+2eMP+gFof/g5m/8AkWj7Z4w/6AWh/wDg5m/+Ra6CigDn/tnjD/oBaH/4OZv/AJFo+2eMP+gFof8A4OZv/kWugooA5/7Z4w/6AWh/+Dmb/wCRaPtnjD/oBaH/AODmb/5FroKKAOf+2eMP+gFof/g5m/8AkWj7Z4w/6AWh/wDg5m/+Ra6CigDyf4v3PiST4W6yt/pWlQWp8jfJBqckrr+/jxhTAoPOP4h689K8G8C6h4x07VY/+EVnu0llPMSKXjlxwcpghsZ64OM54619e+ItAsvE+hz6PqHmfZZ2jZ/LIBOx1cDkEYyozx0zS6L4e0nw9a/Z9KsYrZCBuZRl3xwCzHlj9SaAPOIvE3jDUrqwGp6BpcOoaHfeZcp/aDoJGa1YAACNwvy3KnO48qR3zXeeFvEFxr9vfm7sYrOeyuvszpFcGZW/dRyAhiinpIBjHauSl/5G7xR/2EIv/SS3ra8Afe8Sf9hUf+kltXTUpRjSU1uzjpV5yxEqb2R2NFFFcx2BRRRQAUUUUAFFFFABRRRQAUUUUAFFFFABRRRQAUUUUAFFFFABRRRQAUUUUAFFFFABWXqth9s1HQ5/Pjj+x3rT7W6yZt5o9q+/7zd9FNalYOvxu+teFmVGYJqjsxAztH2O5GT6ckD8aAN6iiigAooooAKKKKACiiigAooooAKKKKACiiigAooooAKKKKACiiigAooooAKKKKACiiigAooooAKKKKACiiigAooooAKy57DzPFWn6j58Y8iyuYPJP3m8x4G3D2Hl4P8AvCtSsG7jc+PtIkCMUXS75S2OATLaYGffB/I0Ab1FFFABRRRQAUUUUAFFFFABXC+Mv+Rx0L/sH33/AKMta7quF8Zf8jjoX/YPvv8A0Za1rQ/iI58V/BkV9B/5KHY/9gq8/wDRtrXoVee6D/yUOx/7BV5/6Nta9CqsT/Ff9dCcF/Aj8/zCiiisDqCiiigAooooAKKKKACiiigAooooAKKKKACiiigAooooAKKKKACiiigAooooAKKKKACiiigAooooA8917/kod9/2CrP/ANG3VWPBv/I467/2D7H/ANGXVV9e/wCSh33/AGCrP/0bdVY8G/8AI467/wBg+x/9GXVdr/3Zf11PNj/vr/rojuqKKK4j0gooooAKKKKACiiigAooooAKKKKACiiigAooooAKKKKACiiigAooooAKKKKACiiigDzSX/kbvFH/AGEIv/SS3ra8Afe8Sf8AYVH/AKSW1Ysv/I3eKP8AsIRf+klvW14A+94k/wCwqP8A0ktq7av+7x/ruebQ/wB7n/XY7GiiiuI9IKKKKACiiigAooooAKKKKACiiigAooooAKKKKACiiigAooooAKKKKACiiigAooooAKydX1Cez1PQYISoS9v2gmyM5QW08nHp80a1rVl6r9h/tHQ/tfmef9tb7Ht6eb9nmzu9vL8z8cUAalFFFABRRRQAUUUUAFFFFABRRRQAUUUUAFFFFABRRRQAUUUUAFFFFABRRRQAUUUUAFFFFABRRRQAUUUUAFFFFABRRRQAVk3GoTx+LtO01Sv2eewup3GOd8cluq8/SVv0rWrLn+w/8JVp/meZ/aH2K58jH3fK3weZn33eVj8aANSiiigAooooAKKKKACiiigArhfGX/I46F/2D77/ANGWtd1XC+Mv+Rx0L/sH33/oy1rWh/ERz4r+DIr6D/yUOx/7BV5/6Nta9Crz3Qf+Sh2P/YKvP/RtrXoVVif4r/roTgv4Efn+YUUUVgdQUUUUAFFFFABRRRQAUUUUAFFFFABRRRQAUUUUAFFFFABRRRQAUUUUAFFFFABRRRQAUUUUAFFFFAHnuvf8lDvv+wVZ/wDo26qx4N/5HHXf+wfY/wDoy6qvr3/JQ77/ALBVn/6NuqseDf8Akcdd/wCwfY/+jLqu1/7sv66nmx/31/10R3VFUtQ1fT9K8kXt3HC87bIYycvI3oqjlj9BV2uI9IKKKKACsTxJq99o9vaS2dmk6S3cEM0kj4WJHlSMkDqzfPx24JJ7HbqnqenQ6raLbTs6oJopsoQDujkWReoPGUGfbNAEOtXF9bWqyWk1lbxqS1xdXgLJDGFJztDLnnA+8Mcn2pmg6pcarplrPc2UttLLbRzNlcJls8DPOeM4I4DDvmq+t+Gv7c8sTavqEKR3AuEjiEJQEKAFKvGwZQQXG7PzHOeFA07S0mtiDLqFzdfu1T98IxkgsS/yIvzHIB7fKMAckgHKQeJNcTT/AO2rn+z5NN/tF7N7eKF0mRBcmAPvLkMQQGI2jjOKvJ4ztEFpFJHPcXFy021beMKQscpjJ2s+WwccLuPfAFPt/BsELqkmq6jcWKXbXi2MhiEQkMplBysYcgOcgFiOB1xUd94GsL/Tk0+S8vBaDzd8f7tg/mOXJ+ZDtYFiAy7WA75wQAQah46gi0u6uLW0uEdUmNtJcxgRzvE211GGzxg9QMgEjOK0b3xXaWGqrYTWl7udzHHIEXbK4QvtUFgxyARu27c8ZzWVZ+BFl01rfVr+6l+a58qJHTZAJZGYlTsyTtOPmJxk4q6/guy/tptWS5uTN9q+2CL92FMgXbgts3lcdixAzx0GACvq3jE/ZrZ9GG9JVhmmvGtZLiO3hlV2RjHGQzElACARtDgk4oj8Yx2+k2N9fXdnNHLNNGZbFGdZgisRtG7KMcAbTuIPHvSaT4MNtpfzXU+n6g17JeCSzlD+TuyqxDepVlWPauCuOMjFPv8AwRbT6Q8KzT3N4JZbkSzyhDNO6FdzFFwuBjG1RjaOD0IBP/wmdsLn7GdL1MX/AJ3kC08tN5fyzJ137MbRnO7HbrUUfjW2Z7+8ZW/su20q31AMIz5v7x5lYFc9vKHHrnrTNB8L3cWpy6tq9zNJefavOiUyq5x5PlfOVRV7scKB25PNWY/BWmx2V1aCe78u5sY7FyXXIjR5GBHy/ezK2e3A49QDO1nxs1u1pDDJBpMrXxtbl9Wi3LCPIaVThJADuwoHzdzkZ4p1r458jRpr3UbWSeKGSUfa7KPbBLEmP3i+Yw65I2gsTtbGRW2/huzfXU1cyT/aFuBcBdw2bhC0OMYzjaxPXrj6VX1/wjZeIrlZ7m4uImFu9sfKEZyj4zjejFTx1XB/IYAGv4z01LlU8q6Ns0/2f7aIx5PmbN5UnOeADk4xnjOeKm0PxVp+vzPDaiVJBEs6LLty8bHAYYJx9DhhkZAzWC3gy9fWIIN+NFjuvtLxm4BEv7oocp5YIYk8/Pt6kDJ439C8M22gszQ3VxP+6WFBKIwEReg+RVyf9psngc0AbdFFFABRRRQAUUUUAeaS/wDI3eKP+whF/wCklvW14A+94k/7Co/9JLasWX/kbvFH/YQi/wDSS3ra8Afe8Sf9hUf+kltXbV/3eP8AXc82h/vc/wCux2NFFFcR6QUUUUAFFFFABRRRQAUUUUAFFFFABRRRQAUUUUAFFFFABRRRQAUUUUAFFFFABRRRQAVk6vp895qegzwhSllftPNk4whtp4+PX5pFrWrB1+R01rwsquyh9UdWAONw+x3JwfXkA/hQBvUUUUAFFFFABRRRQAUUUUAFFFFABRRRQAUUUUAFFFFABRRRQAUUUUAFFFFABRRRQAUUUUAFFFFABRRRQAUUUUAFFFFABWTcafPJ4u07UlC/Z4LC6gc553ySW7Lx9Im/StasG7kcePtIjDsEbS75iueCRLaYOPbJ/M0Ab1FFFABRRRQAUUUUAFFFFABXC+Mv+Rx0L/sH33/oy1ruq4Xxl/yOOhf9g++/9GWta0P4iOfFfwZFfQf+Sh2P/YKvP/RtrXoVee6D/wAlDsf+wVef+jbWvQqrE/xX/XQnBfwI/P8AMKKKKwOoKKKKACiiigAooooAKKKKACiiigAooooAKKKKACiiigAooooAKKKKACiiigAooooAKKKKACiiigDz3Xv+Sh33/YKs/wD0bdVzN1f+KbHxPqJ8OWaSwPZWYvpwSZYE33O0ooRySec4R8Y6dx02vf8AJQ77/sFWf/o26qx4N/5HHXf+wfY/+jLqu1/7sv66nmx/31/10RPoUSrpcWp+H7PStR1Gb5Ly5uNUkZwR/D5xhZjg/wAJVAPQdK37CfXpPO/tHTdNt8JmL7PqDzbm9G3QptHuM/Sm3vhzT7y/XUEWS01AYzdWr+XI4H8L44dfZgRWtXEekYMd34tMiiTRNEVCRuK6vKSB3wPswz+YqxqFx4hjuium6Xplxb4GJLnUZIXz3+VYHH61rUUAZfn69/Zfmf2bpv8AaG/Hkf2g/lbfXzPJzn22fjTdPuPEMl0F1LS9Mt7fBzJbajJM+e3ytAg/WtaigDBku/FokYR6JojICdpbV5QSO2R9mOPzNWr+fXo/J/s7TdNuMpmX7RqDw7W9F2wvuHucfStSigDLt59eaxuHudN02O8X/URR6g7xv/vOYQV/BWqG0uvE73Ua3mkaRDbk/vJIdUkkdR7KbdQfzFbVFAGLd3XidLqRbPSNImtwf3ck2qSRuw91FuwH5mprifXlsbd7bTdNkvG/18UmoOkaf7riElvxVa1KKAMuwn16Tzv7R03TbfCZi+z6g825vRt0KbR7jP0qrHd+LTIok0TRFQkbiurykgd8D7MM/mK3qKAMnULjxDHdFdN0vTLi3wMSXOoyQvnv8qwOP1p3n69/Zfmf2bpv9ob8eR/aD+Vt9fM8nOfbZ+NalFAGTp9x4hkugupaXplvb4OZLbUZJnz2+VoEH61Xku/FokYR6JojICdpbV5QSO2R9mOPzNb1FAGXfz69H5P9nabptxlMy/aNQeHa3ou2F9w9zj6UW8+vNY3D3Om6bHeL/qIo9Qd43/3nMIK/grVqUUAYtpdeJ3uo1vNI0iG3J/eSQ6pJI6j2U26g/mKLu68TpdSLZ6RpE1uD+7km1SSN2Huot2A/M1tUUAZdxPry2Nu9tpumyXjf6+KTUHSNP91xCS34qtFhPr0nnf2jpum2+EzF9n1B5tzejboU2j3GfpWpRQBgx3fi0yKJNE0RUJG4rq8pIHfA+zDP5irGoXHiGO6K6bpemXFvgYkudRkhfPf5VgcfrWtRQB5ZbveSeIvEjX8EEF0dQj3xwTGVF/0W3xhiqk8Y/hHpz1rovAH3vEn/AGFR/wCkltWLL/yN3ij/ALCEX/pJb1teAPveJP8AsKj/ANJLau2r/u8f67nm0P8Ae5/12OxoooriPSCiiigAooooAKKKKACiiigAooooAKKKKACiiigAooooAKKKKACiiigAooooAKKKKACsvVb/AOx6jocHkRyfbL1oNzdY8W80m5ff93t+jGtSsvVbe1m1HQ5Li58qWC9aS3T/AJ7SfZ5lK/8AfDO3/AaANSiiigAooooAKKKKACiiigAooooAKKKKACiiigAooooAKKKKACiiigAooooAKKKKACiiigAooooAKKKKACiiigAooooAKy57/wAvxVp+neRGfPsrmfzj95fLeBdo9j5mT/uitSsue3tW8Vafcvc7byOyuY4oP78bPAXb/gJWMf8AA6ANSiiigAooooAKKKKACiiigArhfGX/ACOOhf8AYPvv/RlrXdVwvjL/AJHHQv8AsH33/oy1rWh/ERz4r+DIr6D/AMlDsf8AsFXn/o21r0KvPdB/5KHY/wDYKvP/AEba16FVYn+K/wCuhOC/gR+f5hRRRWB1BRRRQAUUUUAFFFFABRRRQAUUUUAFFFFABRRRQAUUUUAFFFFABRRRQAUUUUAFFFFABRRRQAUUUUAee69/yUO+/wCwVZ/+jbqrHg3/AJHHXf8AsH2P/oy6qvr3/JQ77/sFWf8A6NuqseDf+Rx13/sH2P8A6Muq7X/uy/rqebH/AH1/10R3VFFFcR6QUUUUAFFFFABRRRQAUUUUAFFFFABRRRQAUUUUAFFFFABRRRQAUUUUAFFFFABRRRQB5pL/AMjd4o/7CEX/AKSW9bXgD73iT/sKj/0ktqxZf+Ru8Uf9hCL/ANJLetrwB97xJ/2FR/6SW1dtX/d4/wBdzzaH+9z/AK7HY0UUVxHpBRRRQAUUUUAFFFFABRRRQAUUUUAFFFFABRRRQAUUUUAFFFFABRRRQAUUUUAFFFFABWLrdpPcat4blhiZ0ttReWZh/AhtbhMn/gTqPxrarF1u7nt9W8NxQysiXOovFMo/jQWtw+D/AMCRT+FAG1RRRQAUUUUAFFFFABRRRQAUUUUAFFFFABRRRQAUUUUAFFFFABRRRQAUUUUAFFFFABRRRQAUUUUAFFFFABRRRQAUUUUAFYt1aTv420u8WJjbxadeRPJ2V3ktio/EI35GtqsW6u508baXZrKwt5dOvJXj7M6SWwU/gHb8zQBtUUUUAFFFFABRRRQAUUUUAFcL4y/5HHQv+wfff+jLWu6rhfGX/I46F/2D77/0Za1rQ/iI58V/BkV9B/5KHY/9gq8/9G2tehV57oP/ACUOx/7BV5/6Nta9CqsT/Ff9dCcF/Aj8/wAwooorA6gooooAKKKKACiiigAooooAKKKKACiiigAooooAKKKKACiiigAooooAKKKKACiiigAooooAKKKKAPPde/5KHff9gqz/APRt1Vjwb/yOOu/9g+x/9GXVV9e/5KHff9gqz/8ARt1Vjwb/AMjjrv8A2D7H/wBGXVdr/wB2X9dTzY/76/66I7qiiiuI9IKKKKACiiigAooooAKKKKACiiigAooooAKKKKACiiigAooooAKKKKACiiigAooooA80l/5G7xR/2EIv/SS3ra8Afe8Sf9hUf+kltWLL/wAjd4o/7CEX/pJb1teAPveJP+wqP/SS2rtq/wC7x/ruebQ/3uf9djsaKKK4j0gooooAKKKKACiiigAooooAKKKKACiiigAooooAKKKKACiiigAooooAKKKKACiiigArL1W4tYdR0OO4tvNlnvWjt3/54yfZ5mLf98K6/wDAq1Ky9VsPtmo6HP58cf2O9afa3WTNvNHtX3/ebvopoA1KKKKACiiigAooooAKKKKACiiigAooooAKKKKACiiigAooooAKKKKACiiigAooooAKKKKACiiigAooooAKKKKACiiigArLnuLVfFWn2z2268ksrmSKf+5GrwB1/wCBFoz/AMArUrLnsPM8VafqPnxjyLK5g8k/ebzHgbcPYeXg/wC8KANSiiigAooooAKKKKACiiigArhfGX/I46F/2D77/wBGWtd1XC+Mv+Rx0L/sH33/AKMta1ofxEc+K/gyK+g/8lDsf+wVef8Ao21r0KvPdB/5KHY/9gq8/wDRtrXoVVif4r/roTgv4Efn+YUUUVgdQUUUUAFFFFABRRRQAUUUUAFFFFABRRRQAUUUUAFFFFABRRRQAUUUUAFFFFABRRRQAUUUUAFFFFAHnuvf8lDvv+wVZ/8Ao26qx4N/5HHXf+wfY/8Aoy6qvr3/ACUO+/7BVn/6NuqseDf+Rx13/sH2P/oy6rtf+7L+up5sf99f9dEd1RRRXEekFFFFABRRRQAUUUUAFFFFABRRRQAUUUUAFFFFABRRRQAUUVkNroHiqLQ/sU4320k/2phtjJQxjavdv9YMnoOnJzgA16KwdY8QzaRqNtC1gr200sUIlNwFkd5H24jjwS+3hm5GByM4NWtT1lbHQrzVIIHuUtN5kjGUYhGIkxkc4AYj1xx1zQBqUVkTeILWHU3t2KC2hsvttxdGTCRIWwn13BZDnPGzvmo28W6IsaM126s83kLE1vIJd+3dt8vbuHy/N06c9KANuiuUsvG9vd+IjpZhSONUXdcbpCpkaSSNEU+WFJPlnJLDk4G7Bw7VfGAtdStbPT0sJ/OS4Zpry+NtGphkSNlB2NuO5z/3yaAOdl/5G7xR/wBhCL/0kt62vAH3vEn/AGFR/wCkltWsniaxjgRby4tYr0rGfJilaVWL7tmxtoLg7W5A42nPQ0i+K9LWK386ciWaCObbDHJKo3rlRuC4ycHaDgt2FbTrc1NQtsc1PD8lZ1b7m5RXN6f4002802PUJm+y28kFvKokD+YDNkKpXb1JGBjO7t2zYk8YaFDapcvfYjYSMf3MhZBGcOXXblAp4JYDBrE6TcorAn8VW8XiKy0tIWkiuUUtdBsLGzhzEpGP4hG/0O3+8KsDxRopkuUN+i/Z0keR3VlTbGcOVYja20kA7ScHg0Aa9FYTeMdCRCz3rqVLb42t5A8YUKSzpt3IoDKdzADDA55q+us6c7ALdIxNwLUYycy7d23/AL559KAL1Fc3feOdEtLC+uY55LhrSCWYxxxP+88s7XCkjDENgHBO3viuhikWaJJFDBXUMNylTg+oPIPsaAH0UUUAFFFFABRRRQAUUUUAFFFFABRRRQAUUUUAFFFFABRRRQAVg6/G7614WZUZgmqOzEDO0fY7kZPpyQPxrerJ1fUJ7PU9BghKhL2/aCbIzlBbTycenzRrQBrUUUUAFFFFABRRRQAUUUUAFFFFABRRRQAUUUUAFFFFABRRRQAUUUUAFFFFABRRRQAUUUUAFFFFABRRRQAUUUUAFFFFABWDdxufH2kSBGKLpd8pbHAJltMDPvg/ka3qybjUJ4/F2naapX7PPYXU7jHO+OS3VefpK36UAa1FFFABRRRQAUUUUAFFFFABXC+Mv+Rx0L/sH33/AKMta7quF8Zf8jjoX/YPvv8A0Za1rQ/iI58V/BkV9B/5KHY/9gq8/wDRtrXoVee6D/yUOx/7BV5/6Nta9CqsT/Ff9dCcF/Aj8/zCiiisDqCiiigAooooAKKKKACiiigDnh4mmg1MW+o6cbWCSKeaFxL5kmyEjczxhflBBBGC3UA4JxUniPxBJoa6csMFtK97cGBWurr7PGmI3kyW2t/cxjHUiqum+H9asb/UL2TV9PuLi7D4mfTn8xOvlrnzseWmfugLnk5ySat+ItCn1k6bJb3NrFNY3BnAurUzxvmJ4yCodf7+c57UAJF4lt4NPt7jVHtYpLiRo4UsZnuxIQCcKVQEnAJwF7VHF400eW7uIhM/kRW0FytwInKSiZmVFTA+ZiVAAHJJwBkHElvoV152mT3d1ZmSwnklC2lmYEYPGyY2mRsEbic559B1rDf4eM0CQjU42VILdAHticyQySOrHDj5SJWUr16EMKAN8+K9HJgSO6LzXAcxRCJ952Ha24YymDgHdjBPNSWviC1k8M2Ot3X+jQ3UEMoTlyDIAQgwMscsAABk+lZ2keEBpd19pN1E0jQTxOsVvsXMjq2RlieAgHJJPXNQWvhXWIdG0/TptZsZF0wQmzkj050IaIBQZMzHcCuQQNvJyCMUAac3i/QoLZLiS+xGwdjiJy0YQ4cuoXKBTwSwGD1qFvGejQPOtzdonlliPLV5D5aqjF2AX5QN4yegBBJ5rm9Z8N61YLey6cXu7/VLe4jupY7dPLLPjaoVpQY8DoxLjrkZxWraeBzBJfytqALXlpLbFRD9zzEiXOd3OPKz2zntigDr1ZXUMpBUjIIPBFLUNpB9ls4Lfdu8qNU3YxnAxmpqACiiigAooooAKKKKACiiigAoqOeeG1t5bi4lSGCJC8kkjBVRQMkkngADvSxTRXEKTQyJJE6hkdGBVgehBHUUAcBr3/JQ77/sFWf/AKNuqseDf+Rx13/sH2P/AKMuqr69/wAlDvv+wVZ/+jbqq3h6bWovGWtf2Xp9hcg2Flv+1XzwYG+5xjbE+ed3pjA6547X/uy/rqebH/fX/XRHpdFc/wDbPGH/AEAtD/8ABzN/8i0fbPGH/QC0P/wczf8AyLXEekdBRXP/AGzxh/0AtD/8HM3/AMi0fbPGH/QC0P8A8HM3/wAi0AdBRXP/AGzxh/0AtD/8HM3/AMi0fbPGH/QC0P8A8HM3/wAi0AdBRXP/AGzxh/0AtD/8HM3/AMi0fbPGH/QC0P8A8HM3/wAi0AdBRXP/AGzxh/0AtD/8HM3/AMi0fbPGH/QC0P8A8HM3/wAi0AdBRXP/AGzxh/0AtD/8HM3/AMi0fbPGH/QC0P8A8HM3/wAi0AdBRXP/AGzxh/0AtD/8HM3/AMi0fbPGH/QC0P8A8HM3/wAi0AdBRXP/AGzxh/0AtD/8HM3/AMi0fbPGH/QC0P8A8HM3/wAi0AdBRXP/AGzxh/0AtD/8HM3/AMi0fbPGH/QC0P8A8HM3/wAi0AdBVCfTPO1+y1TzsfZreeDy9v3vMaI5znjHldMc59uc77Z4w/6AWh/+Dmb/AORaPtnjD/oBaH/4OZv/AJFoAj1Pw7qWrxxwXeq27W7CEzqLLDCRGDFoW3/u9xA67yMcGt6KOXyXS6eOYsz/AHY9o2EnapBJyQuAT3IJwM4GL9s8Yf8AQC0P/wAHM3/yLR9s8Yf9ALQ//BzN/wDItAFO28Dww+GdS0aW+km+2YRZymGijRVWJMZOQoUZ5+Yljxml0vwabDUra/kurczQztKVgtiisPKaMD5nZs/MTkk+mBVv7Z4w/wCgFof/AIOZv/kWj7Z4w/6AWh/+Dmb/AORaAMa88Iz6do+rG0eS+u7qGNLZI41QxTJPNNHISzYwHmXPsmec4FuXwbPGdIexvLEPp9nJauL6xNwspdo2aTAkTDZjz3+8avfbPGH/AEAtD/8ABzN/8i0fbPGH/QC0P/wczf8AyLQBk3WgJe6rDd3PiDT01HTVFvGlvbiOOFXXMitGZCcujJjLfLhSOpyW3hOO4urGSy1q2b+zo7e2mkto8THylUmMur42upGVdWwHOOoI5SS48Rf8JR4jJ0vS/NN9H5i/2lJtVvssGAD5HIxg5wOSRjjJ1vBFz4mVvEH2bSNIkzqYMnmapIm1vs0HAxbnIxtOeOSRjjJ2nSUaan3OanWlKs6bWiNvTvA8lna2sU2ppK1uLFQy22wFbVmK8FzywIBPYgnvgZuveHNWsX1B9HWW4m1KG6jdhAjKPMbcq/NIu0gs3z/MOuV6V0X2zxh/0AtD/wDBzN/8i0fbPGH/AEAtD/8ABzN/8i1idJmH4fQTWF0Z72T+1ZXSWK7QuFgeMKIsR7sNs2L1xnnpniwvhK8OlTaTJq6/2d5ciwJHagOrM4dWdix3bSOAAuQec1b+2eMP+gFof/g5m/8AkWj7Z4w/6AWh/wDg5m/+RaAKs/hrWp7qe9bXLUXdxA1rJ/oB8tYjjGxfMyGB3HLMwO7pgCo7TwXNY3lusGpoNNt7xLxIGt8yllhEW0ybsYwM/dznvV77Z4w/6AWh/wDg5m/+RaPtnjD/AKAWh/8Ag5m/+RaAKN34HF1pC2H9obcQX0W8Q5/4+STnG7+HP4+1dXCJVgjE7o8wUB2RSqlsckAk4Ge2T9TWF9s8Yf8AQC0P/wAHM3/yLR9s8Yf9ALQ//BzN/wDItAHQUVz/ANs8Yf8AQC0P/wAHM3/yLR9s8Yf9ALQ//BzN/wDItAHQUVz/ANs8Yf8AQC0P/wAHM3/yLR9s8Yf9ALQ//BzN/wDItAHQUVz/ANs8Yf8AQC0P/wAHM3/yLR9s8Yf9ALQ//BzN/wDItAHQUVz/ANs8Yf8AQC0P/wAHM3/yLR9s8Yf9ALQ//BzN/wDItAHQUVz/ANs8Yf8AQC0P/wAHM3/yLR9s8Yf9ALQ//BzN/wDItAHQUVz/ANs8Yf8AQC0P/wAHM3/yLR9s8Yf9ALQ//BzN/wDItAHQUVz/ANs8Yf8AQC0P/wAHM3/yLR9s8Yf9ALQ//BzN/wDItAHQUVz/ANs8Yf8AQC0P/wAHM3/yLR9s8Yf9ALQ//BzN/wDItAHQVR1nWdP8P6VNqeqXItrKEqJJSpIXcwUcAE9WArN+2eMP+gFof/g5m/8AkWuH+L9z4kk+Fusrf6VpUFqfI3yQanJK6/v48YUwKDzj+IevPSgD1GzvbTUbSO7sbmG5tpBlJYXDqw9iODVLVfsP9o6H9r8zz/trfY9vTzfs82d3t5fmfjivkLwLqHjHTtVj/wCEVnu0llPMSKXjlxwcpghsZ64OM54617zF4v8AEF3daUmueGJxqWi6iZL0WE0JjIazcALvkB3f6QmRyMA/MTxTUXJ2SJlKMVeTsesUVj+HvEMPiK3u5I7O6tHtbj7PLDdbNwbYj/wMwI2yL3rYpNW0Y001dBRRRQMKKKKACiiigAooooAKKKKACiiigAooooAKKKKACiiigAooooAKKKKACiiigAooooAKKKKACiiigAooooAK8P8ADXhrQbjwro802iabLLJZQu7vaIzMxQEkkjkk17hXkfhT/kTtE/7B8H/ota7MGk5O552YyajGx3ngU5+Hvhonr/ZVr/6KWugrn/An/JPPDX/YKtf/AEUtdBXGeiFFFFABRRRQAUUUUAFcL4y/5HHQv+wfff8Aoy1ruq4Xxl/yOOhf9g++/wDRlrWtD+IjnxX8GRl2d7PY+OtPlt9Mu9Qc6ZeKYrVolYDzbb5j5joMcY655HHXHXf8JDqn/Qma5/3+sv8A5IrndB/5KHY/9gq8/wDRtrXoVVif4r/roTgv4Efn+Zz/APwkOqf9CZrn/f6y/wDkij/hIdU/6EzXP+/1l/8AJFdBRWB1HP8A/CQ6p/0Jmuf9/rL/AOSKP+Eh1T/oTNc/7/WX/wAkV0FFAHP/APCQ6p/0Jmuf9/rL/wCSKP8AhIdU/wChM1z/AL/WX/yRXQUUAc//AMJDqn/Qma5/3+sv/kij/hIdU/6EzXP+/wBZf/JFdBRQBz//AAkOqf8AQma5/wB/rL/5Io/4SHVP+hM1z/v9Zf8AyRXQUUAc/wD8JDqn/Qma5/3+sv8A5Io/4SHVP+hM1z/v9Zf/ACRXQUUAc/8A8JDqn/Qma5/3+sv/AJIo/wCEh1T/AKEzXP8Av9Zf/JFdBRQBz/8AwkOqf9CZrn/f6y/+SKP+Eh1T/oTNc/7/AFl/8kV0FFAHP/8ACQ6p/wBCZrn/AH+sv/kij/hIdU/6EzXP+/1l/wDJFdBRQBz/APwkOqf9CZrn/f6y/wDkij/hIdU/6EzXP+/1l/8AJFdBRQBz/wDwkOqf9CZrn/f6y/8Akij/AISHVP8AoTNc/wC/1l/8kV0FFAHP/wDCQ6p/0Jmuf9/rL/5Io/4SHVP+hM1z/v8AWX/yRXQUUAc//wAJDqn/AEJmuf8Af6y/+SKP+Eh1T/oTNc/7/WX/AMkV0FFAHP8A/CQ6p/0Jmuf9/rL/AOSKP+Eh1T/oTNc/7/WX/wAkV0FFAHB+NNd1GbwL4hifwnrMCPplyrSyS2ZVAYm+Y7ZycDrwCfQGvmbwf468UeE7kDRL2QwZ3PaSjfCw7kqfu+7DB96+xtc0wa14f1LSjL5IvbWW2MgXds3oVzjjOM5xXNeFPhf4b8KJG8FoLq7QhhPcAHa3qq9AfflsdSaAOM0TxFqfifX7zUNV0aTSrn+zrSPymYkSASXJ8xcj7pJOOvTqetdb4N/5HHXf+wfY/wDoy6qvr3/JQ77/ALBVn/6NuqseDf8Akcdd/wCwfY/+jLqu1/7sv66nmx/31/10R3VFFFcR6QUUUUAFFFFABRRRQAUUUUAFFFFABRRRQAUUUUAFFFFABRRRQAUUUUAFFFFABRRRQB5pL/yN3ij/ALCEX/pJb1teAPveJP8AsKj/ANJLasWX/kbvFH/YQi/9JLetrwB97xJ/2FR/6SW1dtX/AHeP9dzzaH+9z/rsdjRRRXEekFFFFABRRRQAUUUUAFFFFABRRRQAUUUUAFFFFABRRRQAUUUUAFFFFABRRRQAVl+ItAsvE+hz6PqHmfZZ2jZ/LIBOx1cDkEYyozx0zWpRQBmaL4e0nw9a/Z9KsYrZCBuZRl3xwCzHlj9Sa4eX/kbvFH/YQi/9JLevS680l/5G7xR/2EIv/SS3rpwn8Q4sf/BNrwB97xJ/2FR/6SW1djXHeAPveJP+wqP/AEktq7Gsqv8AEl6s6KH8KPovyCiiiszUKKKKACsjXtdGhxWjfYp7n7RcxQZjGFiDyIm5mPAwXGB1P5ka9UNZ0z+1rBbXzvK23EE+7bu/1UqSYxkddmM9s55oAZrWpXGmWizQW0Mo3HzJLi5EEUKgElnfBwOAOAeSOg5pLfWVufDlvrCWV0wngSZbZE3S/MAQuOmeeucDqSBzTdQstVuSTbajbRAS5WKW08xGjKAFXG8FjuywIK9gQcZK6FpMmiafb6etysttBAsaDytrb8sWOc42nKgKB8uOpzwAGi63Fq+laXeGNoJNQtBdJCcttGFJBYDHG8fXt0NZuteKptO1v+yrWytZ5xbrcbbi9Fu8wJYbYQVPmMNvIJUDcvPNaWi6VPo2laXpq3UcsFlaC3cmEhpWUKFYHd8owGyMHORyMc5/iDw5fay88cd/Z/Y7mIRyW19Y/aVQjI3x/Ou1iD3yOAfXIBoL4i0v7cLJ7jy7jIUq6MFV9u/YXxtD7educ45qt/wmWg/Z5JzfFY0EZ+eCRS4kOEKArlwxGAVyCaxrf4eraXokg1EeSJBMHkhL3AcIFyHLbeoDfcz2zTbL4fzwXsV3cask0ifZtxFu+ZDDJv3MzyMSW578cceoBp6v430fSrK6mExllgjL+WUdFLbN+wuV2h9nzbT82OcVPdeKrJdHub2wVruaKVLdLZg0LtM5UIpDDKg71OcYwc8iqWo+Er28i1Kzg1dLfT7+V5pI/sm+Tcy4I3lsbc/NjAPbOKkvvB0Wpa899dXbtaNMtwbVAyEyLF5anerA4ALHGOpHpyAX4vE2mtothqksjxx3qqYoljaSQsVJKBFBYkYOQBxg+lFv4p0S7uY4LfUI5GlAKOqt5bEpvC78bd2z5tuc45xWZB4Pl00xtpeopF9mu5Z7RLiFpVjSVcSRn5wWy+5wcgjOOafaeFr+BJ7SXWvNsbpnkul+yqssrvHsf5wcKpPzYC5HTOKANC28U6LeY8m9B3NGqho3Tf5hwjLkDcrHgMMg+tNu/Fuh2LMs98AyeZuCxO5URnDk7QcKpIyeg9ayH8GX84t5Z9Yga7s44I7N1syqKI5FfMi7/mLbQDgrjsKktvBcsf217jU1lmu7e7hdlttgBncOSBuPC4xjPPrQBY/4TO0bU/scdvKQuomwkldSqj/RmuN6kj5hhcYHqD0Iy278bWDaf5+kbL+dpbaOOKQvArieQRo4Yocpkn5lBHBqFfBcguQx1JDCt4t2qfZ/m3fY2tWBO7ocqw44wRznIZdeCZpLayW21OOKaztrOGN5LYupa3lEgYqHBw2MYzx60AX4PFAt57u11u2WwurdIpNsUhuElWRiqbCFDMdykbduc465pP8AhNNH+2wwiWURSW09y07QuqxCFlV1fIyrZJ4OCMY6kZrXPhTUb37Tc3OtL/aM/koXgt3iiEMbM3l7RJvwxZsnfzx2GDSh8A3lrb7LTW1t5Sl2jSRWzLgTuj/JiTK7WjAzkkgnkH5qANe98Yadbaf9sj8yREvIrSZHieOSJpCoBKMu7owIGOcjFTS+LdEhtkuHvG8tg7ELBIzIEOHLqFygUnBLAY71jweB7m3trsRapAlxPe294rC0YojRbeCGkLMDtGSWzyfbEV/4Cu9QgnSTWlzdiY3Km3fy98mPnRBIACqgAb9/r65AOhfxRo0VxNDJfKhhVmeRkYRjau5gJMbSQvJAOQKt6fqlnqkcj2kjN5bbJEkjaN0OAQCrAEcEEZHINcjefDpr55RJqixRSx7XNvbmN5T5e0CTD7XAYBhld3ygbuDnf8O6AdEF28ktvJLcupb7PAY1AUYA+ZmY9zy3egDbooooAKKKKACiisrVfE2i6Fe2VpquowWc19v+z+edqvtxuG48D7y9SM54oA1a8j8Kf8idon/YPg/9FrXrgIIyORXkfhT/AJE7RP8AsHwf+i1rtwXxM83Mvgid54E/5J54a/7BVr/6KWugrn/An/JPPDX/AGCrX/0UtdBXEekFFFFABRRRQAUUUUAFcL4y/wCRx0L/ALB99/6Mta7quF8Zf8jjoX/YPvv/AEZa1rQ/iI58V/BkV9B/5KHY/wDYKvP/AEba16FXnug/8lDsf+wVef8Ao21r0KqxP8V/10JwX8CPz/MKKKKwOoKKKKACiiigAooooAKKKKACiiigAooooAKKKKACiiigAooooAKKKKACiiigAooooAKKKKACiiigDzzxdDqNj4sl1SPSbi7sriztLRZYZoFxL50wCkSSKeTNGBjPWr/gzT9Uh17V7/UNKn0+Ke2tYYlnkiZnKNOWP7t2AH7xeuK2vFNpPeaTBFbxNI66jYylV7Il1E7H8FUn8K2q09rLk5OhiqEFU9p1CiiiszYKKKKACiiigAooooAKKKKACiiigAooooAKKKKACiiigAooooAKKKKACiiigAooooA80l/5G7xR/wBhCL/0kt62vAH3vEn/AGFR/wCkltWLL/yN3ij/ALCEX/pJb1teAPveJP8AsKj/ANJLau2r/u8f67nm0P8Ae5/12OxoooriPSCiiigAooooAKKKKACiiigAooooAKKKKACiiigAooooAKKKKACiiigAooooAKKKKACvNJf+Ru8Uf9hCL/0kt69LrzSX/kbvFH/YQi/9JLeunCfxDix/8El8IXHiCO58RjTtM0y4h/tQZe41GSFgfstvxhYH4xg5z1JGOMnpvtnjD/oBaH/4OZv/AJFrO8Afe8Sf9hUf+kltXY1lV/iS9WdFD+FH0Rz/ANs8Yf8AQC0P/wAHM3/yLR9s8Yf9ALQ//BzN/wDItdBRWZqc/wDbPGH/AEAtD/8ABzN/8i0fbPGH/QC0P/wczf8AyLXQUUAc/wDbPGH/AEAtD/8ABzN/8i0fbPGH/QC0P/wczf8AyLXQUUAc/wDbPGH/AEAtD/8ABzN/8i0fbPGH/QC0P/wczf8AyLXQUUAc/wDbPGH/AEAtD/8ABzN/8i0fbPGH/QC0P/wczf8AyLXQUUAc/wDbPGH/AEAtD/8ABzN/8i0fbPGH/QC0P/wczf8AyLXQUUAc/wDbPGH/AEAtD/8ABzN/8i0fbPGH/QC0P/wczf8AyLXQUUAc/wDbPGH/AEAtD/8ABzN/8i0fbPGH/QC0P/wczf8AyLXQUUAc/wDbPGH/AEAtD/8ABzN/8i0fbPGH/QC0P/wczf8AyLXQUUAc/wDbPGH/AEAtD/8ABzN/8i0fbPGH/QC0P/wczf8AyLXQUUAc/wDbPGH/AEAtD/8ABzN/8i0fbPGH/QC0P/wczf8AyLXQUUAc/wDbPGH/AEAtD/8ABzN/8i0fbPGH/QC0P/wczf8AyLXQUUAc/wDbPGH/AEAtD/8ABzN/8i0fbPGH/QC0P/wczf8AyLXQUUAc/wDbPGH/AEAtD/8ABzN/8i0fbPGH/QC0P/wczf8AyLXQUUAc/wDbPGH/AEAtD/8ABzN/8i0fbPGH/QC0P/wczf8AyLXQUUAc/wDbPGH/AEAtD/8ABzN/8i14h+0PNrEv/COf2tY2Nrj7T5f2S8e43f6rOd0SY7dM5yemOfo+uf8AEXgzRvFN/p13q0Ukx0/zPKjV9qnftyTjn+AdCO4OQaAPnj4Xav8AEq1nW08PxyXtkhAa0vcmFB/vH/V8HOMjPo1el+FP+RO0T/sHwf8Aota9VtLO10+1jtbO3it7eMYSKJAiqPYDivKvCn/InaJ/2D4P/Ra124L4mebmXwRO88Cf8k88Nf8AYKtf/RS10Fc/4E/5J54a/wCwVa/+ilroK4j0gooooAKKKKACiiigArhfGX/I46F/2D77/wBGWtd1XC+Mv+Rx0L/sH33/AKMta1ofxEc+K/gyK+g/8lDsf+wVef8Ao21r0KvPdB/5KHY/9gq8/wDRtrXoVVif4r/roTgv4Efn+YUUUVgdQUUUUAFFFFABRRRQAUUUUAFFFFABRRRQAUUUUAFFFFABRRRQAUUUUAFFFFABRRRQAUUUUAFFFFAGL4pu57PSYJbeVo3bUbGIsvdHuokYfirEfjW1WXr9xa22nRSXlt9oiN7aRqnpI1xGqN/wFyrf8BrUoAKKKKACiiigAooooAKKKKACiiigAooooAKKKKACiiigAooooAKKKKACiiigAooooAKKKKAPNJf+Ru8Uf9hCL/0kt62vAH3vEn/YVH/pJbViy/8AI3eKP+whF/6SW9bXgD73iT/sKj/0ktq7av8Au8f67nm0P97n/XY7GiiiuI9IKKKKACiiigAooooAKKKKACiiigAooooAKKKKACiiigAooooAKKKKACiiigAooooAK80l/wCRu8Uf9hCL/wBJLevS680l/wCRu8Uf9hCL/wBJLeunCfxDix/8E2vAH3vEn/YVH/pJbV2Ncd4A+94k/wCwqP8A0ktq7Gsqv8SXqzoofwo+i/IKKKKzNQooooAKKKKACiiigAooooAKKKKACiiigAooooAKKKKACiiigAooooAKKKKACiiigAooooAKKKKACiiigAryPwp/yJ2if9g+D/0WteuV5H4U/wCRO0T/ALB8H/ota7cF8TPNzL4IneeBP+SeeGv+wVa/+ilroK5/wJ/yTzw1/wBgq1/9FLXQVxHpBRRRQAUUUUAFFFFABXC+Mv8AkcdC/wCwfff+jLWu6rhfGX/I46F/2D77/wBGWta0P4iOfFfwZFfQf+Sh2P8A2Crz/wBG2tehV57oP/JQ7H/sFXn/AKNta9CqsT/Ff9dCcF/Aj8/zCiiisDqCiiigAooooAKKKKACiiigAooooAKKKKACiiigAooooAKKKKACiiigAooooAKKKKACiiigAooooAy9fsP7R06KDz44dt7aT7n6Hy7iOTb9Ts2j3IrUrB8XxvJotusaMxGqac2FGeBeQkn8ACa3qACiiigAooooAKKKKACiiigAooooAKKKKACiiigAooooAKKKKACiiigAooooAKKK5fxfY2mpah4Xs7+1gurWTVX3wzxh0fFnckZU8HBAP1FAHUUVw+o6d8NNK1OLTr7RPD8N1Ls2odMjIG9tq7mCYXJGBkjNYml3fgDUNbtNIk8FaRBd3U13EmNPidQIJDHknZ1YgnHbHJ6ZALEv/I3eKP8AsIRf+klvW14A+94k/wCwqP8A0ktq5bWvCfhyLx1eW8fh/SkgXTLR1jWzjChjLcgkDGMkKoJ9h6Vf8EeD/DN23iD7T4c0ibytTCR+ZZRtsX7NA2BleBlmOPUn1rrqNvDx/ruefSSWLn6f5HpdFc//AMIJ4P8A+hU0P/wXQ/8AxNH/AAgng/8A6FTQ/wDwXQ//ABNch6B0FFc//wAIJ4P/AOhU0P8A8F0P/wATR/wgng//AKFTQ/8AwXQ//E0AdBRXP/8ACCeD/wDoVND/APBdD/8AE0f8IJ4P/wChU0P/AMF0P/xNAHQUVz//AAgng/8A6FTQ/wDwXQ//ABNH/CCeD/8AoVND/wDBdD/8TQB0FFc//wAIJ4P/AOhU0P8A8F0P/wATR/wgng//AKFTQ/8AwXQ//E0AdBRXP/8ACCeD/wDoVND/APBdD/8AE0f8IJ4P/wChU0P/AMF0P/xNAHQUVz//AAgng/8A6FTQ/wDwXQ//ABNH/CCeD/8AoVND/wDBdD/8TQB0FFc//wAIJ4P/AOhU0P8A8F0P/wATR/wgng//AKFTQ/8AwXQ//E0AdBRXP/8ACCeD/wDoVND/APBdD/8AE0f8IJ4P/wChU0P/AMF0P/xNAHQUVz//AAgng/8A6FTQ/wDwXQ//ABNH/CCeD/8AoVND/wDBdD/8TQB0FFc//wAIJ4P/AOhU0P8A8F0P/wATR/wgng//AKFTQ/8AwXQ//E0AdBRXP/8ACCeD/wDoVND/APBdD/8AE0f8IJ4P/wChU0P/AMF0P/xNAHQUVz//AAgng/8A6FTQ/wDwXQ//ABNH/CCeD/8AoVND/wDBdD/8TQB0Fcvr/gzQtZ1nTL+70vSpJ0ui9w1xaoz3S+RIgQkjLYJVsHP+r9hVj/hBPB//AEKmh/8Aguh/+JrF1vwR4YTVvDaweF9IWN9RdZwmnxgMn2W4IDYXkbgh57gd8UAddp2k6do9s1tpen2tjAzFzFawrEpYgDOFAGcAc+1XK5//AIQTwf8A9Cpof/guh/8AiaP+EE8H/wDQqaH/AOC6H/4mgDoKK5//AIQTwf8A9Cpof/guh/8AiaP+EE8H/wDQqaH/AOC6H/4mgDoKK5//AIQTwf8A9Cpof/guh/8AiaP+EE8H/wDQqaH/AOC6H/4mgDoKK5//AIQTwf8A9Cpof/guh/8AiaP+EE8H/wDQqaH/AOC6H/4mgDoKK5//AIQTwf8A9Cpof/guh/8AiaP+EE8H/wDQqaH/AOC6H/4mgDoKK5//AIQTwf8A9Cpof/guh/8AiaP+EE8H/wDQqaH/AOC6H/4mgDoKK5//AIQTwf8A9Cpof/guh/8AiaP+EE8H/wDQqaH/AOC6H/4mgDoKK5//AIQTwf8A9Cpof/guh/8AiaP+EE8H/wDQqaH/AOC6H/4mgDoKK5//AIQTwf8A9Cpof/guh/8AiaP+EE8H/wDQqaH/AOC6H/4mgDoKK5//AIQTwf8A9Cpof/guh/8AiaP+EE8H/wDQqaH/AOC6H/4mgDoKK5//AIQTwf8A9Cpof/guh/8AiaP+EE8H/wDQqaH/AOC6H/4mgDoKK5//AIQTwf8A9Cpof/guh/8AiaP+EE8H/wDQqaH/AOC6H/4mgDoKK5//AIQTwf8A9Cpof/guh/8AiaP+EE8H/wDQqaH/AOC6H/4mgDoKK5//AIQTwf8A9Cpof/guh/8AiaP+EE8H/wDQqaH/AOC6H/4mgDoKK5//AIQTwf8A9Cpof/guh/8AiaP+EE8H/wDQqaH/AOC6H/4mgDoKK5//AIQTwf8A9Cpof/guh/8AiaP+EE8H/wDQqaH/AOC6H/4mgDoKK5//AIQTwf8A9Cpof/guh/8AiaP+EE8H/wDQqaH/AOC6H/4mgDoK8j8Kf8idon/YPg/9FrXef8IJ4P8A+hU0P/wXQ/8AxNcH4U/5E7RP+wfB/wCi1rtwXxM83Mvgid54E/5J54a/7BVr/wCilroK4PwX4L8K3XgXw9cXHhrRpp5dMtnkkksImZ2MSkkkrkknnNbn/CCeD/8AoVND/wDBdD/8TXEekdBRXGX/AIb0LRvEnhW40vRdOsZ31KSNpLW1SJiv2O5O0lQDjIBx7CuzoAKKKKACiiigArhfGX/I46F/2D77/wBGWtd1XC+Mv+Rx0L/sH33/AKMta1ofxEc+K/gyK+g/8lDsf+wVef8Ao21r0KvPdB/5KHY/9gq8/wDRtrXoVVif4r/roTgv4Efn+YUUUVgdQUUUUAFFFFABRRRQAUUUUAFFFFABRRRQAUUUUAFFFFABRRRQAUUUUAFFFFABRRRQAUUUUAFFFFAGT4i1CfTdMhntyod7+zgO4Z+SW5jjb/x1zWtWXr/2H+zov7R8zyPttpt2dfN+0R+V+HmbM+2a1KACiiigAooooAKKKKACiiigAooooAKKKKACiiigAooooAKKKKACiiigAooooAK5/wAQ/wDIc8J/9hWT/wBIrqugrl/F9lFqGoeFrWZ50jfVXyYJ3hcYs7k8OhDDp2PPTpQBn+KfAN34l1k3Z1zyrb9wyW0kDSCJon35TEiqN3AOVJ4GD2qFfCSeF7q11+XWkSDTpb6ecPak+ZHcSB9i4bIYEAA85z0re/4Q3S/+frXP/B7e/wDx6nw+ENJiuYZ2Oo3DQuJI1u9UubhA46NskkZSR1BI4PIoA4Oxnv8AUPEev3+qQmC7M8MCwFs+TCIUkRD/ALQ85i3+0TjjFdR4A+94k/7Co/8ASS2rFl/5G7xR/wBhCL/0kt62vAH3vEn/AGFR/wCkltXbV/3eP9dzzaD/ANrn6f5HY0UUVxHpBRRRQAUUUUAFFFFABRRRQAUUUUAFFFFABRRRQAUUUUAFFFFABRRRQAUUUUAFFFFABWTq+oT2ep6DBCVCXt+0E2RnKC2nk49PmjWtasvVfsP9o6H9r8zz/trfY9vTzfs82d3t5fmfjigDUooooAKKKKACiiigAoormfEVqf8AhJfC939on41BohCHxHzbTksVHU8Dk5xjjGTkA6aiuE8e3GjXulzE31kL5Le4W1e4c7FdTtcRkHAnVgACMspzweRV3xc8erfDzWgt1PBLb2EjzxRShZEfyN4jkxyOGUkcZ47HBAOuoqoJYZ0exS6EdyIFZhGw8yNWyFfBzjlWwSMZU+lc74SCWejw2x1Bo8axfRIJ3Dvc4mn+Tc3JOBuyOfkPbNAHW0V5t45GmDXria9n0ppUsUCWmrZjyAXO61lByshJwdqk5CdOMth8X6y+seVvW2xII10+5dPN8ryd+8rjzC2ed2dnBGM80Ael0V5sviPW7a3shd6qvl31nZXM920EaizEjEOV4xt+6AXzgnJyOKyw91r9g+h6fLLqWb69vJrm2dEOA7LA+SQv+sO8Y4Ji4GKAPXaK8/l8XXF1a2EtxqkehhrKV5naJZN13G4R4cN97awb5VwzcYIpsfim/wD7NvbpdWjl1FYZ2k0z7KG+x7ZAoY7fmXapJIcnf1XAFAHoVFcDbeLntdZhim1u3u9FF15TanJ5aoxMDP5ZdQEyGUcjH3gOvWlZeJ9dvNPbUv7QCpbwWMphFuuJjLKyuGyMgbQMYxg+vSgD0uivI/7TvdPU3VvqTXF9aW+ugNNtcxOt3BtVgAOxBwezcYGK0NcbULjW7TT7q6k1FbDVfMijeCL9+fsMsyqw24OHXAIAI3Z+8AwAPTKK84XxXqQ0bUZrPWIdRkj0oXbTCJNtrcE48shccHn5W+YbTknNTxXviH+047RtekZH1htNLfZYgRGLYzb/ALv39y4H8ODyp60AegUV5VN461NIrNv7QAuI1thNEyQxpNulKO2Dl2yoz8gULg8nkBz6zfaXoVtLb3YvruLVtSjd50WRrfa03ZQCMLh8dcHHQgUAep0V5/Brmp32twaVYa8LmykuvLGpxRROzDyGkZAQvlkqyryF6NgjIzXVeGL+41Pw1p97dFWuJYQZGVcBmHBOO2cZoA1qKKKACiiigAooooAK8j8Kf8idon/YPg/9FrXrleR+FP8AkTtE/wCwfB/6LWu3BfEzzcy+CJ3ngT/knnhr/sFWv/opa6Cuf8Cf8k88Nf8AYKtf/RS10FcR6Rz/AIh/5DnhP/sKyf8ApFdV0Fc/4h/5DnhP/sKyf+kV1XQUAFFFFABRRRQAVwvjL/kcdC/7B99/6Mta7quF8Zf8jjoX/YPvv/RlrWtD+IjnxX8GRX0H/kodj/2Crz/0ba16FXnug/8AJQ7H/sFXn/o21r0KqxP8V/10JwX8CPz/ADCiiisDqCiiigAooooAKKKKACiiigAooooAKKKKACiiigAooooAKKKKACiiigAooooAKKKKACiiigAooooAyfEWnz6lpkMFuFLpf2c53HHyRXMcjf8AjqGtasHxfI8ei27Ruyk6ppy5U44N5CCPxBIreoAKKKKACiiigAooooAKKKKACiiigAooooAKKKKACiiigAooooAKKKKACiiigArn/EP/ACHPCf8A2FZP/SK6roK5/wAQ/wDIc8J/9hWT/wBIrqgDoKKKKAPNJf8AkbvFH/YQi/8ASS3ra8Afe8Sf9hUf+kltWLL/AMjd4o/7CEX/AKSW9bXgD73iT/sKj/0ktq7av+7x/ruebQ/3uf8AXYv6tq76d4kjM948Om2+mXF7cIqqQ+xkGSSM8BieCOcVgeHvHVxNZTwXbw32qNNB5EUTBFxOMhCwHAjYSKTgnCg8k10mq+HU1bWre6uGjezW2eCe3YMC4Lo6kMCMfNGMg5BGRVrUvD+mavcR3F5bs88aGNJUleNlG5X4KkchkUg9RzjGTniPSKEviHU1mis49D36h5Mk80Bu1CqivtGx8YYt1UHbx94rUVp4ua4eCSTTjFZ3azNZy+cGaTywSQy4+XIBIwW4HODxVuXwhoktvHA1tLtQSKWW5lVpFkO5xIwbLhjyQxOamtPDOk2N4bmC2YPhwiNK7Rxhzl9iElUyeu0CgDKuPGnlx2Xk6c8st5b2s0aeaFAM77ACcdjyT6dqyNY8Z6wLXUDa20Fq1tpOpzSEy+YY7i3KqpXK4ZcsDzjO7kDGD0lp4N0OyaNobWUtH5QjMl1LJsEbbo1G5jhVPQDipLnwnot55vnWjkSpcJIFnkUOs4AlBwwyGwD7EAjBFAFB/Fs4v5IP7OK2y3hsPtPnDd5vleYCEx93tnOc9iOazdI1TWLTTPC2p3mry6hHrCRrcQTRQp5bPbtLujKKvAKYIbPB6jFdU2haaxYm2yWuftZ+dv8AW7dm7r/d4x09qpWPg3Q9PWNYbaeRIoTBElzdzTrFGV2lUEjsF+XjjHHFAHPv4/vLuMR2FlafaPOsiGF35kbRTTiMjeExuHT5dw5yCcYKaz4+mih1K3tLeJbiO3uHt5YZ1mIaJgCHGNik5yBubHQ4Nb6+C9DWNk8i5Yskce972ZnVY3DxhWL5XawBGCP1NI/gfw/IrJJZyvGUkjEbXUpVEkOXVV3YUH0GOg9BQBUuvGM1kZba5sLaG/imSMxyXoEZVkLqQ23cx+UjaEJyPTmorLx4l7d6XGLDyIb+KJ1e4m8slnyNqZXa5Ujkbg3PCmtX/hENH+VvKuhMJDJ9o+2zecSV2nMm/cRtAGM44pIPB+h2xtxDayJHb+WUiFzL5eY23IWTdtYqeQSDjA9BgAp6L40h1rVltIrN1glMohmDFj8hx842gLu5K4J6c4PFPl8XRx+IxpG2x3GZYsnUEEnOP+WeM556VpWfh7TLC+N5bQyLJlyqmd2jjLnLbEJ2rk9cAfrWpQBzOm+Lo9R146Yq2Ibc65j1BJH+XP8AABnt+FQ3cWrf8Jva2MfiG/jtLi1nuzCsNuQpSSJQgJiJ24kbqSenNdZVdrG2fUYtQaPN1FC8CSbjwjFWYY6clF/L60AczaeNnuBeSS6UYYYbW5uYm88MZVgfY2Rj5cnpyeKL3x1Da6klolk8oWOGSchjuXzegRQp3YHJyV46ZPFaVz4Q0S7gjhltZBGiypiO5lTckrbpFYqw3KTzg5FSz+GdKubmOeSCQOixoQk8iLIqHKB1DAPg9NwNADPDN1dXNnerd3L3LwX08CyOqqxVXIGdoA6e1bVZehaZPpdrcJcTxzSz3UtwzRoVUb2zgAk9PrWpQAUUUUAFFFFABRRRQAVk6vp895qegzwhSllftPNk4whtp4+PX5pFrWry3VLZtS8Ya+bi+1MC1vY0gSHUZ4UiH2WEnaqOADl35xn5jV06bqS5UZVqsaUeaR6Fqmt6do0aNfXKxtIdsUQBeSU+iIuWY+wBqvpt/rGo3Ymk01bDTsHAuXzcSHsdi/Kg+pJ9Qtee+EfDV7H4i1zxDpd7JPfW90LP7PqN1NIkkXkQyY37iwbdI3LBwOMAda6SxsNKv782d8niTTtSfL/Z5dZvAj+pjdZdjD2BBA6gVMo8raZcJKUVJdTtqKy7/QLPUfJ8+bUk8lNi/Z9SuIMj/a8t13H3OTRb6BZ21jcWcc2pGKf77SalcSSD/dkZyyf8BIpFGpRWLaeFtPs7qO4iuNXZ4zkCbWLuVD9VeUqfoQaLvwtp95dSXEtxq6vIckQ6xdxIPoqShR9ABQBtUVl3GgWdzY29nJNqQig+40epXEch/wB6RXDP/wACJosNAs9O87yJtSfzk2N9o1K4nwP9nzHbafcYNAGoQD1FFYMfhDTY5FkW51slSCA2uXjDj1Blwfoasah4dsdSujcTz6mjkAYttUuYE4/2Y5FX8cUAa1FZf9gWf9l/2d52peRv37/7SuPNz/11378e27FN0/w7Y6bdC4gn1N3AIxc6pczpz/sySMv44oA1SAcZAOORS4Gc45rBk8IabJI0jXOtgsSSF1y8Uc+gEuB9BVq/0Cz1HyfPm1JPJTYv2fUriDI/2vLddx9zk0AahGRg0Vl2+gWdtY3FnHNqRin++0mpXEkg/wB2RnLJ/wABIqG08LafZ3UdxFcauzxnIE2sXcqH6q8pU/Qg0AbWAetGBnNYt34W0+8upLiW41dXkOSIdYu4kH0VJQo+gAqa40CzubG3s5JtSEUH3Gj1K4jkP+9Irhn/AOBE0AaeBjGBilrLsNAs9O87yJtSfzk2N9o1K4nwP9nzHbafcYNVY/CGmxyLItzrZKkEBtcvGHHqDLg/Q0Ab1FZOoeHbHUro3E8+po5AGLbVLmBOP9mORV/HFO/sCz/sv+zvO1LyN+/f/aVx5uf+uu/fj23YoA1AAOgorJ0/w7Y6bdC4gn1N3AIxc6pczpz/ALMkjL+OKryeENNkkaRrnWwWJJC65eKOfQCXA+goA3sDOcc0Vl3+gWeo+T582pJ5KbF+z6lcQZH+15bruPucmi30CztrG4s45tSMU/32k1K4kkH+7Izlk/4CRQBqAADAGKKxbTwtp9ndR3EVxq7PGcgTaxdyofqrylT9CDRd+FtPvLqS4luNXV5DkiHWLuJB9FSUKPoAKANqisu40CzubG3s5JtSEUH3Gj1K4jkP+9Irhn/4ETRYaBZ6d53kTak/nJsb7RqVxPgf7PmO20+4waANSisGPwhpsciyLc62SpBAbXLxhx6gy4P0NWNQ8O2OpXRuJ59TRyAMW2qXMCcf7Mcir+OKANaisv8AsCz/ALL/ALO87UvI379/9pXHm5/6679+Pbdim6f4dsdNuhcQT6m7gEYudUuZ05/2ZJGX8cUAa1eR+FP+RO0T/sHwf+i1rvpPCGmySNI1zrYLEkhdcvFHPoBLgfQVwPhT/kTtE/7B8H/ota7cF8TPNzL4IneeBP8Aknnhr/sFWv8A6KWugrn/AAJ/yTzw1/2CrX/0UtdBXEekc/4h/wCQ54T/AOwrJ/6RXVdBXP8AiH/kOeE/+wrJ/wCkV1XQUAFFFFABRRRQAVwvjL/kcdC/7B99/wCjLWu6rhfGX/I46F/2D77/ANGWta0P4iOfFfwZFfQf+Sh2P/YKvP8A0ba16FXnug/8lDsf+wVef+jbWvQqrE/xX/XQnBfwI/P8wooorA6gooooAKKKKACiiigAooooAKKKKACiiigAooooAKKKKACiiigAooooAKKKKACiiigAooooAKKKKAMvX7/+ztOin8iObde2kG1+g8y4jj3fUb9w9wK1Ky9ft7W506KO8ufs8QvbSRX9ZFuI2Rf+BOFX/gValABRRRQAUUUUAFFFFABRRRQAUUUUAFFFFABRRRQAUUUUAFFFFABRRRQAUUUUAFc/4h/5DnhP/sKyf+kV1XQVz/iH/kOeE/8AsKyf+kV1QB0FFFFAHmkv/I3eKP8AsIRf+klvW14A+94k/wCwqP8A0ktqxZf+Ru8Uf9hCL/0kt62vAH3vEn/YVH/pJbV21f8Ad4/13PNof73P+ux2NFFFcR6QUUUUAFFFFABRRRQAUUUUAFFFFABRRRQAUUUUAFFFFABRRRQAUUUUAFFFFABRRRQAV5pL/wAjd4o/7CEX/pJb16XXmkv/ACN3ij/sIRf+klvXThP4hxY/+CbXgD73iT/sKj/0ktq7GuO8Afe8Sf8AYVH/AKSW1djWVX+JL1Z0UP4UfRfkFFFFZmoUUUUAFFFFABRRRQAUUUUAFFFFABRRRQAUUUUAFFFFABRRRQAUUUUAFFFFABRRRQAUUUUAFFFFABRRRQAV5H4U/wCRO0T/ALB8H/ota9cryPwp/wAidon/AGD4P/Ra124L4mebmXwRO88Cf8k88Nf9gq1/9FLXQVz/AIE/5J54a/7BVr/6KWugriPSOf8AEP8AyHPCf/YVk/8ASK6roK5/xD/yHPCf/YVk/wDSK6roKACiiigAooooAK4Xxl/yOOhf9g++/wDRlrXdVwvjL/kcdC/7B99/6Mta1ofxEc+K/gyK+g/8lDsf+wVef+jbWvQq890H/kodj/2Crz/0ba16FVYn+K/66E4L+BH5/mFFFFYHUFFFFABRRRQAUUUUAFFFFABRRRQAUUUUAFFFFABRRRQAUUUUAFFFFABRRRQAUUUUAFFFFABRRRQBi+KbSe80mCK3iaR11GxlKr2RLqJ2P4KpP4VtVi+Kbuez0mCW3laN21GxiLL3R7qJGH4qxH41tUAFFFFABRRRQAUUUUAFFFFABRRRQAUUUUAFFFFABRRRQAUUUUAFFFFABRRRQAVz/iH/AJDnhP8A7Csn/pFdV0Fc/wCIf+Q54T/7Csn/AKRXVAHQUUUUAeaS/wDI3eKP+whF/wCklvW14A+94k/7Co/9JLasWX/kbvFH/YQi/wDSS3ra8Afe8Sf9hUf+kltXbV/3eP8AXc82h/vc/wCux2NFFFcR6QUUUUAFFFFABRRRQAUUUUAFFFFABRRRQAUUUUAFFFFABRRRQAUUUUAFFFFABRRRQAV5pL/yN3ij/sIRf+klvXpdeaS/8jd4o/7CEX/pJb104T+IcWP/AIJteAPveJP+wqP/AEktq7GuO8Afe8Sf9hUf+kltXY1lV/iS9WdFD+FH0X5BRRRWZqFFFFABRRRQAUUUUAFFFFABRRRQAUUUUAFFFFABRRRQAUUUUAFFFFABRRRQAUUUUAFFFFABRRRQAUUUUAFeR+FP+RO0T/sHwf8Aota9cryPwp/yJ2if9g+D/wBFrXbgviZ5uZfBE7zwJ/yTzw1/2CrX/wBFLXQVz/gT/knnhr/sFWv/AKKWugriPSOf8Q/8hzwn/wBhWT/0iuq6Cuf8Q/8AIc8J/wDYVk/9IrqugoAKKKKACiiigArhfGX/ACOOhf8AYPvv/RlrXdVwvjL/AJHHQv8AsH33/oy1rWh/ERz4r+DIr6D/AMlDsf8AsFXn/o21r0KvPdB/5KHY/wDYKvP/AEba16FVYn+K/wCuhOC/gR+f5hRRRWB1BRRRQAUUUUAFFFFABRRRQAUUUUAFFFFABRRRQAUUUUAFFFFABRRRQAUUUUAFFFFABRRRQAUUUUAZev3FrbadFJeW32iI3tpGqekjXEao3/AXKt/wGtSsvX7D+0dOig8+OHbe2k+5+h8u4jk2/U7No9yK1KACiiigAooooAKKKKACiiigAooooAKKKKACiiigAooooAKKKKACiiigAooooAK5/wAQ/wDIc8J/9hWT/wBIrqugrn/EP/Ic8J/9hWT/ANIrqgDoKKKKAPNJf+Ru8Uf9hCL/ANJLetrwB97xJ/2FR/6SW1Ysv/I3eKP+whF/6SW9bXgD73iT/sKj/wBJLau2r/u8f67nm0P97n/XY7GiiiuI9IKKKKACiiigAooooAKKKKACiiigAooooAKKKKACiiigAooooAKKKKACiiigAooooAK80l/5G7xR/wBhCL/0kt69LrzSX/kbvFH/AGEIv/SS3rpwn8Q4sf8AwTa8Afe8Sf8AYVH/AKSW1djXHeAPveJP+wqP/SS2rsayq/xJerOih/Cj6L8gooorM1CiiigAooooAKKKKACiiigAooooAKKKKACiiigAooooAKKKKACiiigAooooAKKKKACiiigAooooAKKKKACvI/Cn/InaJ/2D4P8A0WteuV5H4U/5E7RP+wfB/wCi1rtwXxM83Mvgid54E/5J54a/7BVr/wCilroK5/wJ/wAk88Nf9gq1/wDRS10FcR6Rz/iH/kOeE/8AsKyf+kV1XQVz/iH/AJDnhP8A7Csn/pFdV0FABRRRQAUUUUAFcL4y/wCRx0L/ALB99/6Mta7quF8Zf8jjoX/YPvv/AEZa1rQ/iI58V/BkV9B/5KHY/wDYKvP/AEba16FXnug/8lDsf+wVef8Ao21r0KqxP8V/10JwX8CPz/MKKKKwOoKKKKACiiigAooooAKKKKACiiigAooooAKKKKACiiigAooooAKKKKACiiigAooooAKKKKACiiigDB8XxvJotusaMxGqac2FGeBeQkn8ACa3qyfEWoT6bpkM9uVDvf2cB3DPyS3Mcbf+Oua1qACiiigAooooAKKKKACiiigAooooAKKKKACiiigAooooAKKKKACiiigAooooAK5/xD/yHPCf/YVk/wDSK6roK5/xD/yHPCf/AGFZP/SK6oA6CiiigDy3VLltN8X68Lix1Mi6vY3geHTp5klH2WEHayIQTlH4zn5TXRfD5JvI124ktbq3S41ISRC6t3gZlFtAudrgHG5WGcdq2tX1Cez1PQYISoS9v2gmyM5QW08nHp80a1rVrKrKUFB7IwhQjGo6i3YUUUVkbhRRRQAUUUUAFFFFABRRRQAUUUUAFFFFABRRRQAUUUUAFFFFABRRRQAUUUUAFFFFABXB+IvCkjeJrO6s9X1O1XWNQ23iQpAyIFtHwy74mKkmCMckjk8ZNd5WTq+oT2ep6DBCVCXt+0E2RnKC2nk49PmjWmpOLumTKMZK0lcb4e8PQ+Hbe7jjvLq7e6uPtEs11s3FtiJ/AqgDbGvatiiik3fVjSSVkFFFFAwooooAKKKKACiiigAooooAKKKKACiiigAooooAKKKKACiiigAooooAKKKKACiiigAooooAKKKKACiiigAryPwp/wAidon/AGD4P/Ra165XkfhT/kTtE/7B8H/ota7cF8TPNzL4IneeBP8Aknnhr/sFWv8A6KWugrn/AAJ/yTzw1/2CrX/0UtdBXEekc/4h/wCQ54T/AOwrJ/6RXVdBXP8AiH/kOeE/+wrJ/wCkV1XQUAFFFFABRRRQAVwvjL/kcdC/7B99/wCjLWu6rhfGX/I46F/2D77/ANGWta0P4iOfFfwZFfQf+Sh2P/YKvP8A0ba16FXnug/8lDsf+wVef+jbWvQqrE/xX/XQnBfwI/P8wooorA6gooooAKKKKACiiigAooooAKKKKACiiigAooooAKKKKACiiigAooooAKKKKACiiigAooooAKKKKAMvX/sP9nRf2j5nkfbbTbs6+b9oj8r8PM2Z9s1qVk+ItPn1LTIYLcKXS/s5zuOPkiuY5G/8dQ1rUAFFFFABRRRQAUUUUAFFFFABRRRQAUUUUAFFFFABRRRQAUUUUAFFFFABRRRQAVz/AIh/5DnhP/sKyf8ApFdV0Fc/4h/5DnhP/sKyf+kV1QB0FFFFAGXqv2H+0dD+1+Z5/wBtb7Ht6eb9nmzu9vL8z8cVqVk6vp895qegzwhSllftPNk4whtp4+PX5pFrWoAKKKKACiiigAooooAKKKKACiiigAooooAKKKKACiiigAooooAKKKKACiiigAooooAKKKKACsvVfsP9o6H9r8zz/trfY9vTzfs82d3t5fmfjitSsnV9PnvNT0GeEKUsr9p5snGENtPHx6/NItAGtRRRQAUUUUAFFFFABRRRQAUUUUAFFFFABRRRQAUUUUAFFFFABRRRQAUUUUAFFFFABRRRQAUUUUAFFFFABRRRQAUUUUAFeR+FP+RO0T/sHwf+i1r1yvI/Cn/InaJ/2D4P/Ra124L4mebmXwRO88Cf8k88Nf8AYKtf/RS10Fc/4E/5J54a/wCwVa/+ilroK4j0jn/EP/Ic8J/9hWT/ANIrqugrn/EP/Ic8J/8AYVk/9IrqugoAKKKKACiiigArhfGX/I46F/2D77/0Za13VcL4y/5HHQv+wfff+jLWtaH8RHPiv4MivoP/ACUOx/7BV5/6Nta9Crz3Qf8Akodj/wBgq8/9G2tehVWJ/iv+uhOC/gR+f5hRRRWB1BRRRQAUUUUAFFFFABRRRQAUUUUAFFFFABRRRQAUUUUAFFFFABRRRQAUUUUAFFFFABRRRQAUUUUAYPi+R49Ft2jdlJ1TTlypxwbyEEfiCRW9WXr9/wD2dp0U/kRzbr20g2v0HmXEce76jfuHuBWpQAUUUUAFFFFABRRRQAUUUUAFFFFABRRRQAUUUUAFFFFABRRRQAUUUUAFFFFABXP+If8AkOeE/wDsKyf+kV1XQVz/AIh/5DnhP/sKyf8ApFdUAdBRRRQBg6/I6a14WVXZQ+qOrAHG4fY7k4PryAfwrerL1W/+x6jocHkRyfbL1oNzdY8W80m5ff8Ad7foxrUoAKKKKACiiigAooooAKKKKACiiigAooooAKKKKACiiigAooooAKKKKACiiigAooooAKKKKACsHX5HTWvCyq7KH1R1YA43D7HcnB9eQD+Fb1Zeq3/2PUdDg8iOT7ZetBubrHi3mk3L7/u9v0Y0AalFFFABRRRQAUUUUAFFFFABRRRQAUUUUAFFFFABRRRQAUUUUAFFFFABRRRQAUUUUAFFFFABRRRQAUUUUAFFFFABRRRQAV5H4U/5E7RP+wfB/wCi1r1yvI/Cn/InaJ/2D4P/AEWtduC+Jnm5l8ETvPAn/JPPDX/YKtf/AEUtdBXP+BP+SeeGv+wVa/8Aopa6CuI9I5/xD/yHPCf/AGFZP/SK6roK5/xD/wAhzwn/ANhWT/0iuq6CgAooooAKKKKACuF8Zf8AI46F/wBg++/9GWtd1XC+Mv8AkcdC/wCwfff+jLWtaH8RHPiv4MivoP8AyUOx/wCwVef+jbWvQq890H/kodj/ANgq8/8ARtrXoVVif4r/AK6E4L+BH5/mFFFFYHUFFFFABRRRQAUUUUAFFFFABRRRQAUUUUAFFFFABRRRQAUUUUAFFFFABRRRQAUUUUAFFFFABRRRQBl6/b2tzp0Ud5c/Z4he2kiv6yLcRsi/8CcKv/Aq1KxfFNpPeaTBFbxNI66jYylV7Il1E7H8FUn8K2qACiiigAooooAKKKKACiiigAooooAKKKKACiiigAooooAKKKKACiiigAooooAK5/xD/wAhzwn/ANhWT/0iuq6Cuf8AEP8AyHPCf/YVk/8ASK6oA6CiiigDL1W3tZtR0OS4ufKlgvWkt0/57SfZ5lK/98M7f8BrUrF1u0nuNW8NywxM6W2ovLMw/gQ2twmT/wACdR+NbVABRRRQAUUUUAFFFFABRRRQAUUUUAFFFFABRRRQAUUUUAFFFFABRRRQAUUUUAFFFFABRRRQAVl6rb2s2o6HJcXPlSwXrSW6f89pPs8ylf8Avhnb/gNalYut2k9xq3huWGJnS21F5ZmH8CG1uEyf+BOo/GgDaooooAKKKKACiiigAooooAKKKKACiiigAooooAKKKKACiiigAooooAKKKKACiiigAooooAKKKKACiiigAooooAKKKKACvI/Cn/InaJ/2D4P/AEWteuV5H4U/5E7RP+wfB/6LWu3BfEzzcy+CJ3ngT/knnhr/ALBVr/6KWugrn/An/JPPDX/YKtf/AEUtdBXEekc/4h/5DnhP/sKyf+kV1XQVz/iH/kOeE/8AsKyf+kV1XQUAFFFFABRRRQAVwvjL/kcdC/7B99/6Mta7quF8Zf8AI46F/wBg++/9GWta0P4iOfFfwZFfQf8Akodj/wBgq8/9G2tehV57oP8AyUOx/wCwVef+jbWvQqrE/wAV/wBdCcF/Aj8/zCiiisDqCiiigAooooAKKKKACiiigAooooAKKKKACiiigAooooAKKKKACiiigAooooAKKKKACiiigAooooAxfFN3PZ6TBLbytG7ajYxFl7o91EjD8VYj8a2qy9fuLW206KS8tvtERvbSNU9JGuI1Rv8AgLlW/wCA1qUAFFFFABRRRQAUUUUAFFFFABRRRQAUUUUAFFFFABRRRQAUUUUAFFFFABRRRQAVz/iH/kOeE/8AsKyf+kV1XQVz/iH/AJDnhP8A7Csn/pFdUAdBRRRQBi63dz2+reG4oZWRLnUXimUfxoLW4fB/4Ein8K2qy9VuLWHUdDjuLbzZZ71o7d/+eMn2eZi3/fCuv/Aq1KACiiigAooooAKKKKACiiigAooooAKKKKACiiigAooooAKKKKACiiigAooooAKKKKACiiigArF1u7nt9W8NxQysiXOovFMo/jQWtw+D/wACRT+FbVZeq3FrDqOhx3Ft5ss960du/wDzxk+zzMW/74V1/wCBUAalFFFABRRRQAUUUUAFFFFABRRRQAUUUUAFFFFABRRRQAUUUUAFFFFABRRRQAUUUUAFFFFABRRRQAUUUUAFFFFABRRRQAV5H4U/5E7RP+wfB/6LWvXK8j8Kf8idon/YPg/9FrXbgviZ5uZfBE7zwJ/yTzw1/wBgq1/9FLXQVz/gT/knnhr/ALBVr/6KWugriPSOf8Q/8hzwn/2FZP8A0iuq6Cuf8Q/8hzwn/wBhWT/0iuq6CgAooooAKKKKACuF8Zf8jjoX/YPvv/RlrXdVwvjL/kcdC/7B99/6Mta1ofxEc+K/gyK+g/8AJQ7H/sFXn/o21r0KvPdB/wCSh2P/AGCrz/0ba16FVYn+K/66E4L+BH5/mFFFFYHUFFFFABRRRQAUUUUAFFFFABRRRQAUUUUAFFFFABRRRQAUUUUAFFFFABRRRQAUUUUAFFFFABRRRQBl6/Yf2jp0UHnxw7b20n3P0Pl3Ecm36nZtHuRWpWD4vjeTRbdY0ZiNU05sKM8C8hJP4AE1vUAFFFFABRRRQAUUUUAFFFFABRRRQAUUUUAFFFFABRRRQAUUUUAFFFFABRRRQAVz/iH/AJDnhP8A7Csn/pFdV0Fcv4vS8k1DwsthPBBdHVX2STwmVF/0O5zlQyk8Z/iHrz0oA6iisd7bxIbGNE1XSheByZJW0yQxsvYBPPBB99xz6Ci4tvEjQ24ttV0qOVUxO0mmSOrt6qBONo9iW+tAEmq2H2zUdDn8+OP7HetPtbrJm3mj2r7/ALzd9FNalcf4jtdek8Q+F3gvbEQJqBJBsHYq32S4DMWEoG0gkAYGCynJxg7nka9/anmf2lpv9n78+R/Z7+bt9PM87GffZ+FAGpRWTb2/iFbqRrnVNMktyG2RxadIjqf4csZ2Bx34Gfam29t4kWG4FzqulSSsmIGj0yRFRvVgZzuHsCv1oA2KKx0tvEgsZEfVdKN4XBjlXTJBGq9wU88kn33DHoaHtvEhsY0TVdKF4HJklbTJDGy9gE88EH33HPoKANiise4tvEjQ24ttV0qOVUxO0mmSOrt6qBONo9iW+tOuLfxC11G1tqmmR24C745dOkd2P8WGE6gZ7cHHvQBrUVl+Rr39qeZ/aWm/2fvz5H9nv5u308zzsZ99n4U23t/EK3UjXOqaZJbkNsji06RHU/w5YzsDjvwM+1AGtRWPb23iRYbgXOq6VJKyYgaPTJEVG9WBnO4ewK/WhLbxILGRH1XSjeFwY5V0yQRqvcFPPJJ99wx6GgDYorHe28SGxjRNV0oXgcmSVtMkMbL2ATzwQffcc+gouLbxI0NuLbVdKjlVMTtJpkjq7eqgTjaPYlvrQBsUVk3Fv4ha6ja21TTI7cBd8cunSO7H+LDCdQM9uDj3p3ka9/anmf2lpv8AZ+/Pkf2e/m7fTzPOxn32fhQBqUVk29v4hW6ka51TTJLchtkcWnSI6n+HLGdgcd+Bn2ptvbeJFhuBc6rpUkrJiBo9MkRUb1YGc7h7Ar9aANiisdLbxILGRH1XSjeFwY5V0yQRqvcFPPJJ99wx6Gh7bxIbGNE1XSheByZJW0yQxsvYBPPBB99xz6CgDYorHuLbxI0NuLbVdKjlVMTtJpkjq7eqgTjaPYlvrTri38QtdRtbappkduAu+OXTpHdj/FhhOoGe3Bx70Aa1FZfka9/anmf2lpv9n78+R/Z7+bt9PM87GffZ+FNt7fxCt1I1zqmmSW5DbI4tOkR1P8OWM7A478DPtQBrUVj29t4kWG4FzqulSSsmIGj0yRFRvVgZzuHsCv1oS28SCxkR9V0o3hcGOVdMkEar3BTzySffcMehoA2KKx3tvEhsY0TVdKF4HJklbTJDGy9gE88EH33HPoKLi28SNDbi21XSo5VTE7SaZI6u3qoE42j2Jb60AbFZeq2H2zUdDn8+OP7HetPtbrJm3mj2r7/vN30U024t/ELXUbW2qaZHbgLvjl06R3Y/xYYTqBntwce9Y+t2utt4r8NyteWclguqOyxJYuJIx9kuBlpPNIPBI+6OWHpggHXUVk29v4hW6ka51TTJLchtkcWnSI6n+HLGdgcd+Bn2ptvbeJFhuBc6rpUkrJiBo9MkRUb1YGc7h7Ar9aANiisdLbxILGRH1XSjeFwY5V0yQRqvcFPPJJ99wx6Gh7bxIbGNE1XSheByZJW0yQxsvYBPPBB99xz6CgDYorHuLbxI0NuLbVdKjlVMTtJpkjq7eqgTjaPYlvrTri38QtdRtbappkduAu+OXTpHdj/FhhOoGe3Bx70Aa1FZfka9/anmf2lpv9n78+R/Z7+bt9PM87GffZ+FNt7fxCt1I1zqmmSW5DbI4tOkR1P8OWM7A478DPtQBrUVj29t4kWG4FzqulSSsmIGj0yRFRvVgZzuHsCv1oS28SCxkR9V0o3hcGOVdMkEar3BTzySffcMehoA2KKx3tvEhsY0TVdKF4HJklbTJDGy9gE88EH33HPoKLi28SNDbi21XSo5VTE7SaZI6u3qoE42j2Jb60AbFFZNxb+IWuo2ttU0yO3AXfHLp0jux/iwwnUDPbg496d5Gvf2p5n9pab/AGfvz5H9nv5u308zzsZ99n4UAalFZNvb+IVupGudU0yS3IbZHFp0iOp/hyxnYHHfgZ9qbb23iRYbgXOq6VJKyYgaPTJEVG9WBnO4ewK/WgDYorHS28SCxkR9V0o3hcGOVdMkEar3BTzySffcMehoe28SGxjRNV0oXgcmSVtMkMbL2ATzwQffcc+goA2KKx7i28SNDbi21XSo5VTE7SaZI6u3qoE42j2Jb6064t/ELXUbW2qaZHbgLvjl06R3Y/xYYTqBntwce9AGtRWX5Gvf2p5n9pab/Z+/Pkf2e/m7fTzPOxn32fhTbe38QrdSNc6ppkluQ2yOLTpEdT/DljOwOO/Az7UAa1FY9vbeJFhuBc6rpUkrJiBo9MkRUb1YGc7h7Ar9aEtvEgsZEfVdKN4XBjlXTJBGq9wU88kn33DHoaANiisd7bxIbGNE1XSheByZJW0yQxsvYBPPBB99xz6Ci4tvEjQ24ttV0qOVUxO0mmSOrt6qBONo9iW+tAGxRWTcW/iFrqNrbVNMjtwF3xy6dI7sf4sMJ1Az24OPeneRr39qeZ/aWm/2fvz5H9nv5u308zzsZ99n4UAalFZNvb+IVupGudU0yS3IbZHFp0iOp/hyxnYHHfgZ9qbb23iRYbgXOq6VJKyYgaPTJEVG9WBnO4ewK/WgDYorHS28SCxkR9V0o3hcGOVdMkEar3BTzySffcMehoe28SGxjRNV0oXgcmSVtMkMbL2ATzwQffcc+goA2KKx7i28SNDbi21XSo5VTE7SaZI6u3qoE42j2Jb6064t/ELXUbW2qaZHbgLvjl06R3Y/xYYTqBntwce9AGtXkfhT/kTtE/7B8H/ota9I8jXv7U8z+0tN/s/fnyP7Pfzdvp5nnYz77PwryjwjFqw8M6Q0l7ZNbnT4vLjW0cOv7sbct5hBx34GfauzB/EzzsxXuI9L8Cf8k88Nf9gq1/8ARS10FcX4Dg17/hX+jZ1LTdr6VbfZB/Z75i/drjzD537zjjjZzzx0rcS28SCxkR9V0o3hcGOVdMkEar3BTzySffcMehrjPRK/iH/kOeE/+wrJ/wCkV1XQVyupR38epeEl1K5tri4/teTMltbtCmPsV1j5Wdz+tdVQAUUUUAFFFFABXC+Mv+Rx0L/sH33/AKMta7quF8Zf8jjoX/YPvv8A0Za1rQ/iI58V/BkV9B/5KHY/9gq8/wDRtrXoVee6D/yUOx/7BV5/6Nta9CqsT/Ff9dCcF/Aj8/zCiiisDqCiiigAooooAKKKKACiiigAooooAKKKKACiiigAooooAKKKKACiiigAooooAKKKKACiiigAooooAyfEWoT6bpkM9uVDvf2cB3DPyS3Mcbf+Oua1qy9f+w/2dF/aPmeR9ttNuzr5v2iPyvw8zZn2zWpQAUUUUAFFFFABRRRQAUUUUAFFFFABRRRQAUUUUAFFFFABRRRQAUUUUAFFFFABXP8AiH/kOeE/+wrJ/wCkV1XQVz/iH/kOeE/+wrJ/6RXVAHQUUUUAZOr6hPZ6noMEJUJe37QTZGcoLaeTj0+aNa1qy9V+w/2jof2vzPP+2t9j29PN+zzZ3e3l+Z+OK1KAKEuqxxa5baUIJnlnhefzF27I0UgHdkg8lgBgHr2qrpPijS9Y0y41CGbyba3kKSPcYQAYDK+c42srKwPowrI8S2t9d+I47axZoZbvSri2S4KNsjLSRZO4AgMEDFc9SAKqT+Br2zvopNLvFubVRA7298+0M8DjywCiYA2lhnBIKpwccAHXPrGmR29vPJqNmsNwQIJGnULKT2U5w34VJHqVjNcz20V7bvPAMzRLKpaMf7QzkfjXLTeHtWaUXaWGhvLNbXFvLauWEEfmSb933D5hP8Ywu4+lN03wpqMEtlBcfYo7exW6VbmFmMtx52fvKVAXruPzNlgKAOrk1Kxhj8yW9t0TYJNzSqBtPRs56H1rK1DxloenRNI17HPixnv0W3dXMkUQy23nBPXHPOD6Gueg8H61O+n/ANoLpqpZw2MG2OZ5PMEEu9m5QYyOg5x60uo+CtUni1KO2ax23trqluN8jL5f2ko0bYCHPKYYdt2RnpQB2J1bTxcm1+225utpb7OJV8zAGT8uc1laV4vt9TOnmTTdQsY9SQPZS3Sx7J8pvABR2wdoJw2Oh9Kpv4TuTPLMptRI+r/b92TnZ5Hl4zj736Y71W0/w54gfStC02/XS7eLR4V2PDO85nlSFolLBo02r8xYjJJwBQBv3PirQrW2Nw+q2bRLcR2zNHMrbJHYKoODx689gT2p994j0qxt76RryGaSxjMlxBDIrSoB6rnj8cVx1v4L19D58rWLTRx2SpG1y21jbziUj5YVCKRkABTj8eI77wLr+oCdZZdPwbe7hUGUiM+cwYYjWIBRx83LEk9T3AO7Ot6Stib46pZC0DbDObhPL3em7OM+1Sf2pp32mC2+32vn3Cb4YvOXdIvqozkj3Fcjc+Gtenv31GNdPt5JZ1Z7eCcjaqxGMMsphJDHODhQdoAzwQa2l+CtZ059JVZLJfsy2y3EqzMyyCJiSDE6EE7SQrgoVJ77eQDuor+znu5rSG7gkuYf9bCkgLp/vAHI/GmHVNOW6+ytf2ouN23yTMu/PpjOc1y3h7wjf6TrUM9xJHJBbG4Mcv2l2aTzX3f6vaAvq3zNkgH6bL+G431kal/aF0G8wSeSI4NnHbJj34/4Fn3oA0ItU06e5+zQ39rJPkjykmUtx14BzWcviNptXurC10XUblbS4W3muYzCI0Yoj/xSBiArqThfpmlsvDcdlqv28ahdSNlj5TxwBec91jDd/wC99c1BYeFbaHX9V1a7hikuLm9W4t3V2yiCGJMEcDO5GPfgj6AAu33iPSrGC9kN5DNJZIZJ4IJFaVAOOVzkfjVuHU7C4luIob62lktjidElVjF/vAH5fxrgbrwP4gvZJDLPYgeTdxLtmIQ+a4YERrEAg455YknOT3sN4J1aaDVbTz7W2tbm2mijRZWlG55A4xuQNGhwwZNzA7uMY5AOqk8RWAawNu32yC9uDbpcWsiPGj4Jwx3Z7HoD05xWtXn66NeadqGntdRE3F1q0UpWKWS4CokLKWdyigdQOg4A5Pb0CgAooooAKKKKACiiigArJ1fUJ7PU9BghKhL2/aCbIzlBbTycenzRrWtXF614ps/+EgFr/YWr3s2jXQcS2zQLGJWtzx88qk/JP6dT7U1FydkiZSjFXk7HaUVj+HvEMPiK3u5I7O6tHtbj7PLDdbNwbYj/AMDMCNsi962KTVtGNNNXQUUUUDCiiigAooooAKKKKACiiigAooooAKKKKACiiigAooooAKKKKACiiigAooooAKKKKACiiigAooooAKKKKACvI/Cn/InaJ/2D4P8A0WteuV5H4U/5E7RP+wfB/wCi1rtwXxM83Mvgid54E/5J54a/7BVr/wCilroK5/wJ/wAk88Nf9gq1/wDRS10FcR6Rz/iH/kOeE/8AsKyf+kV1XQVz/iH/AJDnhP8A7Csn/pFdV0FABRRRQAUUUUAFcL4y/wCRx0L/ALB99/6Mta7quF8Zf8jjoX/YPvv/AEZa1rQ/iI58V/BkV9B/5KHY/wDYKvP/AEba16FXnug/8lDsf+wVef8Ao21r0KqxP8V/10JwX8CPz/MKKKKwOoKKKKACiiigAooooAKKKKACiiigAooooAKKKKACiiigAooooAKKKKACiiigAooooAKKKKACiiigDJ8RafPqWmQwW4Uul/ZznccfJFcxyN/46hrWrB8XyPHotu0bspOqacuVOODeQgj8QSK3qACiiigAooooAKKKKACiiigAooooAKKKKACiiigAooooAKKKKACiiigAooooAK5/xD/yHPCf/YVk/wDSK6roK5/xD/yHPCf/AGFZP/SK6oA6CiiigDJ1fT57zU9BnhClLK/aebJxhDbTx8evzSLWtWDr8jprXhZVdlD6o6sAcbh9juTg+vIB/Ct6gAooooAKKKKACiiigAooooAKKKKACiiigAooooAKKKKACiiigAooooAKKKKACiiigAooooAK80l/5G7xR/2EIv8A0kt69LrzSX/kbvFH/YQi/wDSS3rpwn8Q4sf/AATa8Afe8Sf9hUf+kltXY1x3gD73iT/sKj/0ktq7Gsqv8SXqzoofwo+i/IKKKKzNQooooAKKKKACiisTxJq99o9vaS2dmk6S3cEM0kj4WJHlSMkDqzfPx24JJ7EA26Ky9dur6zsRNZNbxqhLTSzQvNsQA/djQhnJOBjIxknnGKj0/VrrUfClnq0Fkkt3c20cot0mAXcwGRv6YGevJwOhPFAGxRWV4f1OfV/C2m6pLFGLi6tI52jQkLuZQcDPbJrO0vXNUbU7qxv4be5kgigeQ2CHEEkjYMTFmIYqMMSMHbztGRkA6aiub8Ua3f6TcWaQNDa2sqyNNfT2ctzHGy7dqFY2Uruyx3E4G3HeoIvHenRR2qXjxtM8UT3EtpKskEXmHCkMSCwJ5+UHA5OBzQB1dFcyPHWlhXklgvYYAszRzPENsxifY6oASc7iAMgZ7ZqnP4xvBBqypZC1u4bqCztIbwYPmSqpy+1iCo3FjtP3VPegDsqK5218WQXGiaXerazz3V+Cq2lvtZxIoPmLliFAUqwJJHT1IqS18WWd3KdlpqC2y5WS6ktyscThN5VwTuUgdSVwDxnPFAG9RXPQeMbCV4Y5ba9tnuDEYFnjAMqSNtVxgnAyRkHDDIyOaju/G2n2ss0a2t9cPAs7yiGJTsSFgsjcsOASOByewNAHS0VwepeObxbkw20cNlF/an2IXdzA06sn2XzwwSNw2ScD6MO+QNVfFK2Ol2c147alNdyvHEbCzaIHapY5WRyRgKxyT2oA6eiuZj8bWc1nBcxabqbiWA3QQQrvFuMfvSN3Q54H3jg4XitDSvENrrN5dQ2UNw8VuQrXJQCJmKqwCnOT8rqemOetAGtRRRQAUUUUAFFFFABRRRQAV5H4U/5E7RP+wfB/6LWvXK8j8Kf8idon/YPg/wDRa124L4mebmXwRO88Cf8AJPPDX/YKtf8A0UtdBXP+BP8Aknnhr/sFWv8A6KWugriPSOf8Q/8AIc8J/wDYVk/9Irqugrn/ABD/AMhzwn/2FZP/AEiuq6CgAooooAKKKKACuF8Zf8jjoX/YPvv/AEZa13VcL4y/5HHQv+wfff8Aoy1rWh/ERz4r+DIr6D/yUOx/7BV5/wCjbWvQq890H/kodj/2Crz/ANG2tehVWJ/iv+uhOC/gR+f5hRRRWB1BRRRQAUUUUAFFFFABRRRQAUUUUAFFFFABRRRQAUUUUAFFFFABRRRQAUUUUAFFFFABRRRQAUUUUAZev3/9nadFP5Ec269tINr9B5lxHHu+o37h7gVqVl6/b2tzp0Ud5c/Z4he2kiv6yLcRsi/8CcKv/Aq1KACiiigAooooAKKKKACiiigAooooAKKKKACiiigAooooAKKKKACiiigAooooAK5/xD/yHPCf/YVk/wDSK6roK5/xD/yHPCf/AGFZP/SK6oA6CiiigDL1W/8Aseo6HB5Ecn2y9aDc3WPFvNJuX3/d7foxrUrL1W3tZtR0OS4ufKlgvWkt0/57SfZ5lK/98M7f8BrUoAKKKKACiiigAooooAKKKKACiiigAooooAKKKKACiiigAooooAKKKKACiiigAooooAKKKKACvNJf+Ru8Uf8AYQi/9JLevS680l/5G7xR/wBhCL/0kt66cJ/EOLH/AMEteFNb07Rl8QtfXKxtJqwWKIAvJKfsltwiLlmPsAa6nTb/AFjUbsTSaathp2DgXL5uJD2OxflQfUk+oWvPfCPhi5i8T+IfEmkTq1+l6LZ7a7lk8qVDbwvgMp+U5c4JVwAAABXSWNhpV/fmzvk8SadqT5f7PLrN4Ef1MbrLsYewIIHUCsqvxy9WdFD+FH0R21FZd/oFnqPk+fNqSeSmxfs+pXEGR/teW67j7nJot9As7axuLOObUjFP99pNSuJJB/uyM5ZP+AkVmampRWLaeFtPs7qO4iuNXZ4zkCbWLuVD9VeUqfoQaLvwtp95dSXEtxq6vIckQ6xdxIPoqShR9ABQBtUVl3GgWdzY29nJNqQig+40epXEch/3pFcM/wDwImiw0Cz07zvIm1J/OTY32jUrifA/2fMdtp9xg0AalU9T06HVbRbadnVBNFNlCAd0ciyL1B4ygz7ZrNj8IabHIsi3OtkqQQG1y8YceoMuD9DVjUPDtjqV0biefU0cgDFtqlzAnH+zHIq/jigB97pMt4/mJq1/bSLL5kbQmPCDYFKbShDKeW+YEgnggYAfpWkxaPbx21tPO1vHEsaxSFSMgsWfOMlmLc844GAOcx/2BZ/2X/Z3nal5G/fv/tK483P/AF1378e27FN0/wAO2Om3QuIJ9TdwCMXOqXM6c/7MkjL+OKAH2OjLpumWWn2t7dJb2lp9lQfISwwoVySv3ht4xgfMcg8YpaL4XbQ7L7Jb65qUsO5WHmrb5yGDMSyxAsX5DFiSck5B5p0nhDTZJGka51sFiSQuuXijn0AlwPoKtX+gWeo+T582pJ5KbF+z6lcQZH+15bruPucmgBNT0Vr+6hu7fU73T7mJGj8y22EOhIJDLIrKeQCDjI9eTWTF4A0u2kja3uLuIAIJgDGTOVYtuZihZSSTnYVyD9K17fQLO2sbizjm1IxT/faTUriSQf7sjOWT/gJFQ2nhbT7O6juIrjV2eM5Am1i7lQ/VXlKn6EGgCvP4M0y5sobSSS5McIn2EOAQZX3k5x1DYI9Mc5pkfgqwbUPtuoXV1qchkMzJeCIxs/liMNsVAOFBA/3ieTVu78LafeXUlxLcauryHJEOsXcSD6KkoUfQAVNcaBZ3Njb2ck2pCKD7jR6lcRyH/ekVwz/8CJoAojwfZW7FrC5ubB1uXuYTbiPEBdArqishXa2NxBB+YkjFLbeELa1JjGo6lJaOS0trJMCkzmPYzO2N7ZHJG7bnnFXbDQLPTvO8ibUn85NjfaNSuJ8D/Z8x22n3GDVWPwhpsciyLc62SpBAbXLxhx6gy4P0NAFU+CLZ4183VNRlnhWJLWd2j326xuHULhMHlRksGJxUtt4Msbdbndd3sz3MNxDLJIybm85gztwoAORxxgelXdQ8O2OpXRuJ59TRyAMW2qXMCcf7Mcir+OKd/YFn/Zf9nedqXkb9+/8AtK483P8A11378e27FAGZJ4Kg+0Ce21bUbSRLlLqMxeSdkgg+zkjfG2QyYyDnkZGOavHw8Jham91O9vZbZ5GSWYRK3zxlCCERRgBiRxnPc9Kfp/h2x026FxBPqbuARi51S5nTn/ZkkZfxxVeTwhpskjSNc62CxJIXXLxRz6AS4H0FADZ/CVu9taw29/fWhgshYmSFk3Sw4Aw25SM8dVAIya0NI0a00SGeGzDiKWUSbGOQmEVAB7YQdc1Hf6BZ6j5PnzaknkpsX7PqVxBkf7Xluu4+5yaLfQLO2sbizjm1IxT/AH2k1K4kkH+7Izlk/wCAkUAalFYtp4W0+zuo7iK41dnjOQJtYu5UP1V5Sp+hBou/C2n3l1JcS3Grq8hyRDrF3Eg+ipKFH0AFAG1RWXcaBZ3Njb2ck2pCKD7jR6lcRyH/AHpFcM//AAImiw0Cz07zvIm1J/OTY32jUrifA/2fMdtp9xg0AalFYMfhDTY5FkW51slSCA2uXjDj1Blwfoasah4dsdSujcTz6mjkAYttUuYE4/2Y5FX8cUAa1FZf9gWf9l/2d52peRv37/7SuPNz/wBdd+/HtuxTdP8ADtjpt0LiCfU3cAjFzqlzOnP+zJIy/jigDWryPwp/yJ2if9g+D/0Wtd9J4Q02SRpGudbBYkkLrl4o59AJcD6CuB8Kf8idon/YPg/9FrXbgviZ5uZfBE7zwJ/yTzw1/wBgq1/9FLXQVz/gT/knnhr/ALBVr/6KWugriPSOf8Q/8hzwn/2FZP8A0iuq6Cuf8Q/8hzwn/wBhWT/0iuq6CgAooooAKKKKACuF8Zf8jjoX/YPvv/RlrXdVwvjL/kcdC/7B99/6Mta1ofxEc+K/gyK+g/8AJQ7H/sFXn/o21r0KvPdB/wCSh2P/AGCrz/0ba16FVYn+K/66E4L+BH5/mFFFFYHUFFFFABRRRQAUUUUAFFFFABRRRQAUUUUAFFFFABRRRQAUUUUAFFFFABRRRQAUUUUAFFFFABRRRQBi+KbSe80mCK3iaR11GxlKr2RLqJ2P4KpP4VtVi+Kbuez0mCW3laN21GxiLL3R7qJGH4qxH41tUAFFFFABRRRQAUUUUAFFFFABRRRQAUUUUAFFFFABRRRQAUUUUAFFFFABRRRQAVz/AIh/5DnhP/sKyf8ApFdV0Fc/4h/5DnhP/sKyf+kV1QB0FFFFAGLrdpPcat4blhiZ0ttReWZh/AhtbhMn/gTqPxrarF1u7nt9W8NxQysiXOovFMo/jQWtw+D/AMCRT+FbVABRRRQAUVzmvNfQ+I/DjxX7x2kt60MtsigCQ/Z5myzdSAVXA4GeTnjFbxt55024lsL+ZL62tJZo7eK88jGMfviB9/Zj7rHac4PqADrKK5nxZc3c/wAP9RvtM1CSzkWwkuRMkY8zAiLADP3CeOeSOcYOCNfUXX+w7lpL82KiAs90CAYVxy+TwMc8mgC/RXPeFVuRDeTubxLCaYNYxXsrvME2gFiXJYBiCQrHIHpnAg0BtVF34hgn1EXc8GpRKrzJtRYzDAzKqg/KMM2OTycnPOQDqKK5bWbb+0fGum2Et3fRWx065mKWt3JBl1kgAJKMM4DN19a5228UatAsEVs32+T/AEqKCeR9xliS6WNX2blEjbPQgtgkHnBAPS6K4j/hLdTuYYDZtpoYWFzdztNHKo3QSBGTaSrJzkEnO0j+Ksk+N9RgttVubXa7o0t59nniklaOMRRME4KrGuWb5ievRTzgA9NorkrbxVdXeqjShbxpclmmbk8WnlBlkHvvdU+oY9q57QrrVNM8EweIpbO9luF0pLgS3WtTTRzOUU5MRYhc5J6cUAenUVxl74j1zTZtSW4j06VNOtYpJCiunmSSlwuMk7EXaCSc8Z6YqK88S65Fqh0NRp7Xnm7XulRxGEMLS8JuJD/IRjd3B9qAO4orx618Qaw/gvSdNbUro6jDJb3VzdGQ+ZLbOYmXLdeTOqe4jeusl8Y6iuuXMMdhGbGC8NmTINnzBN28yFto5/h252/NntQB2tFeex+NNdeEQ/ZIBfDZJLELR2eKNlYgiMSfvV3IRvjZuhO2rGoeOLiH7Lc2P2S5tDHaSTeXFK2ROwGfMO1U4YFQQzHuF4oA7qivPrvx3qVjZxahJbWUttcw3UsNum5ZY/KYKA5yQeT8xAG3pz1qtqOsa1qt5punTW04mGoFHS2uXsTOhtpHAO1yyYK5xnBwD3wAD0qivOdG8S6wlpc6ejwi609bqec6hI0uFST5YhICN2FIzIc44ypOa15PF9ydf0fTo4IFj1WGKdHkJBgUhmZHH95gMJ0yQ/8Ad5AOvooooAK80l/5G7xR/wBhCL/0kt69LrzSX/kbvFH/AGEIv/SS3rpwn8Q4sf8AwTa8Afe8Sf8AYVH/AKSW1djXHeAPveJP+wqP/SS2rsayq/xJerOih/Cj6L8gooorM1CiiigAooooAKKKKACiiigAooooAKKKKACiiigAooooAKKKKACiiigAooooAKKKKACiiigAooooAKKKKACvI/Cn/InaJ/2D4P8A0WteuV55J4G0O08W6TpVuNSisX026kMCatdBQY5LZUx+84AEjjA459hW9CsqTbaOXFYd1kknax0fgT/knnhr/sFWv/opa6Cq9jZW+m6fbWFpH5VtbRLDCmSdqKAFGTycADrVisDqOf8AEP8AyHPCf/YVk/8ASK6roK5/xD/yHPCf/YVk/wDSK6roKACiiigAooooAK4Xxl/yOOhf9g++/wDRlrXdVwvjL/kcdC/7B99/6Mta1ofxEc+K/gyK+g/8lDsf+wVef+jbWvQq890H/kodj/2Crz/0ba16FVYn+K/66E4L+BH5/mFFFFYHUFFFFABRRRQAUUUUAFFFFABRRRQAUUUUAFFFFABRRRQAUUUUAFFFFABRRRQAUUUUAFFFFABRRRQBl6/cWttp0Ul5bfaIje2kap6SNcRqjf8AAXKt/wABrUrL1+w/tHTooPPjh23tpPufofLuI5Nv1OzaPcitSgAooooAKKKKACiiigAooooAKKKKACiiigAooooAKKKKACiiigAooooAKKKKACuf8Q/8hzwn/wBhWT/0iuq6Cuf8Q/8AIc8J/wDYVk/9IrqgDoKKKKAOX1/xZ4X0vWdMs9T1LTVu0ujgS3caNaEwSESOCcqCpKAn/noPWobr4keHPt0Gm6VqFrq+p3PEFtZ3MZDH3cnaPpkt6A1hS/8AI3eKP+whF/6SW9TeFfD+n6vN4hnniaO7i1QCK7gcxzRj7Lb8B15x/snIPcGtp0eWmp33OaniOes6Vti8NfsotV3eI/Gmj2M9u/OlW19HGsbekrMQ7n2wg9VNdHceJdBtLG3vrnW9Nhs7j/UXEl0ixy/7rE4b8KrWaeIdOu4re5eHVbFjt+1cQ3EQ9XUfI4912n/ZNbtYnSY9pr3hvW3L2eraVftZ/vyYbiOUwcFd/BO3gsM+hNZMms/DrUDFBJqfhe4IlZ442uLd/wB47ZYgZ+8zHJ7k111FAGDqWteEtMnu7LVNT0S0muhuuYLqeKNpgVC5dWPzZUBeewA6UlzqPhG80mbUrq80SfTZ1W2mupZYmhkCklY2cnaQCzYUngk+tb9FAHMaHceBJbpLXw/N4ce4VzOkNg0BcMFK7wE5yFZhn0YjvSz+KPAwkniuNd8O72mWSZZLuDJlQrtZgT95Si4J5G0egrpqKAOc8QXHgqRrVvEk3h9mZC9sdSaEkocZKb+xwOntSi88G6rpUtwLnQrvTrSMRSyiSGSKFMghSeijIU446D0roqKAOKjf4favq9ikOpeHrt4YWt7WxjngkUbmDZRBn5vl7epq1qmofD9b+SLVrzwyt5G58xLqWASKxxncGOQeF6+g9K6uigDmEuvDOkztr1zrunJBfQpb2sstxDHCIU3EJGeARlmPU9vSodJtfh3dvM+jQeF5mhiJmNmluxSMjB3bei49eK62igDmx4r8E3M0iDxB4fllugIpALyFjMOQFPPzdSMe59aJr7wT4cmWxnu9A0yWMmVYJJYYWUsMFgpIIyOM9xXSUUAc+L7weNJ/tIXWhDTdsdt9qEkPk4Q5SPf93Ck5C54PSmWOo+DNZ1sT2F7oN9qxU4e3lhln2gYPIJbGOPpXR0UAcW9/8MoYnspLzwkiLJueFpbcAOMjlc9QCR+Yq/qs3gizntp9Yl8PwSvEv2d7xoVLRj7u0t1UZ4xxzXS0UAcRpdj4Sa8vvEUWu6bfQRrKk8oktzGgkILea6AbuBgbz0z1zmp7ef4cakkOkW03hW7V5d8VnG9vJukxjKoM5bHGQM4rsKKAOTvr74e2uzS7+78MQ/YmIS0nkgXyCeSAhPy/lV+81PwnDaR6je32ipbXrI6XM00QSdk5QhicMVxkHnGOK3aKAMuw8S6Dqvnf2drem3nkpvl+z3SSeWvq20nA9zVWPxv4SlkWOPxRoju5Cqq6hESSegA3VvUUAZOoeKfD2k3RtdS13TLO4ADGK5u443APQ4Yg1wVvf2ep+IvEl5YXcF3ayahHsmgkEiNi1twcMODggj8K9TrzSX/kbvFH/YQi/wDSS3rpwn8Q4sf/AATa8Afe8Sf9hUf+kltXY1x3gD73iT/sKj/0ktq7Gsqv8SXqzoofwo+i/IKKKKzNQooooAKKKKACiiigAooooAKKKKACiiigAooooAKKKKACiiigAooooAKKKKACiiigAooooAKKKKACiiigArLnuLVfFWn2z2268ksrmSKf+5GrwB1/4EWjP/AK1Ky57DzPFWn6j58Y8iyuYPJP3m8x4G3D2Hl4P+8KANSiiigDn/EP/Ic8J/8AYVk/9Irqugrn/EP/ACHPCf8A2FZP/SK6roKACiiigAooooAK4Xxl/wAjjoX/AGD77/0Za13VcL4y/wCRx0L/ALB99/6Mta1ofxEc+K/gyK+g/wDJQ7H/ALBV5/6Nta9Crz3Qf+Sh2P8A2Crz/wBG2tehVWJ/iv8AroTgv4Efn+YUUUVgdQUUUUAFFFFABRRRQAUUUUAFFFFABRRRQAUUUUAFFFFABRRRQAUUUUAFFFFABRRRQAUUUUAFFFFAGD4vjeTRbdY0ZiNU05sKM8C8hJP4AE1vVk+ItQn03TIZ7cqHe/s4DuGfkluY42/8dc1rUAFFFFABRRRQAUUUUAFFFFABRRRQAUUUUAFFFFABRRRQAUUUUAFFFFABRRRQAVz/AIh/5DnhP/sKyf8ApFdV0Fc/4h/5DnhP/sKyf+kV1QB0FFFFAHnGt6R4gsvFdzNZWen3VvrV8vlPJdyRtEVtFB3gRMAP9HbBBPLKMV0fg7RtR0e31RtUW1We9vftAS1maVVUQxR43MiknMZPTvV7V9Qns9T0GCEqEvb9oJsjOUFtPJx6fNGta1W6knFRb0M40YRm5pasKKKKg0CiiigAooooAKKKKACiiigAooooAKKKKACiiigAooooAKKKKACiiigAooooAKKKKACvNJf+Ru8Uf9hCL/0kt69LrzSX/kbvFH/YQi/9JLeunCfxDix/8E2vAH3vEn/YVH/pJbV2Ncd4A+94k/7Co/8ASS2rsayq/wASXqzoofwo+i/IKKKKzNQooooAKKKKACiiigAooooAKKKKACiiigAooooAKKKKACiiigAooooAKKKKACiiigAooooAKKKKACiiigArBu43Pj7SJAjFF0u+UtjgEy2mBn3wfyNb1ZNxqE8fi7TtNUr9nnsLqdxjnfHJbqvP0lb9KANaiiigDn/EP/Ic8J/9hWT/ANIrqugrn/EP/Ic8J/8AYVk/9IrqugoAKKKKACiiigArhfGX/I46F/2D77/0Za13VcL4y/5HHQv+wfff+jLWtaH8RHPiv4MivoP/ACUOx/7BV5/6Nta9Crz3Qf8Akodj/wBgq8/9G2tehVWJ/iv+uhOC/gR+f5hRRRWB1BRRRQAUUUUAFFFFABRRRQAUUUUAFFFFABRRRQAUUUUAFFFFABRRRQAUUUUAFFFFABRRRQAUUUUAZev/AGH+zov7R8zyPttpt2dfN+0R+V+HmbM+2a1KyfEWnz6lpkMFuFLpf2c53HHyRXMcjf8AjqGtagAooooAKKKKACiiigAooooAKKKKACiiigAooooAKKKKACiiigAooooAKKKKACuf8Q/8hzwn/wBhWT/0iuq6Cuf8Q/8AIc8J/wDYVk/9IrqgDoKKKKAMvVfsP9o6H9r8zz/trfY9vTzfs82d3t5fmfjitSsnV9PnvNT0GeEKUsr9p5snGENtPHx6/NIta1ABRRRQAUUUUAFFFFABRRRQAUUUUAFFFFABRRRQAUUUUAFFFFABRRRQAUUUUAFFFFABRRRQAVxeteFrP/hIBdf27q9lNrN0EEVssDIZVtzz88TEfu4PXqPeu0rJ1fT57zU9BnhClLK/aebJxhDbTx8evzSLTUnF3TJlGMlaSuN8PeHofDtvdxx3l1dvdXH2iWa62bi2xE/gVQBtjXtWxRRSbvqxpJKyCiiigYUUUUAFFFFABRRRQAUUUUAFFFFABRRRQAUUUUAFFFFABRRRQAUUUUAFFFFABRRRQAUUUUAFFFFABRRRQAVlz/Yf+Eq0/wAzzP7Q+xXPkY+75W+DzM++7ysfjWpWTcafPJ4u07UlC/Z4LC6gc553ySW7Lx9Im/SgDWooooA5/wAQ/wDIc8J/9hWT/wBIrqugrn/EP/Ic8J/9hWT/ANIrqugoAKKKKACiiigArhfGX/I46F/2D77/ANGWtd1XNeJvDN7rWpaffWOpQWctpDNCRPaGdXWQxntImCDEO561pSkozTZlXg503FbswtB/5KHY/wDYKvP/AEba16FXJaF4T1HTvEKarqGrWt2Y7WW2SK3sWg/1jxsSSZXz/qgMYHU11tOtNTm5InDU5U6SjLcKKKKyNwooooAKKKKACiiigAooooAKKKKACiiigAooooAKKKKACiiigAooooAKKKKACiiigAooooAKKKKAMHxfI8ei27Ruyk6ppy5U44N5CCPxBIreqG5jeSJVRImIkRsSjIwGBJ+oAJHvipqACiiigAooooAKKKKACiiigAooooAKKKKACiiigAooooAKKKKACiiigAooooAK5/xD/wAhzwn/ANhWT/0iuq6Cuf8AEP8AyHPCf/YVk/8ASK6oA6CiiigDB1+R01rwsquyh9UdWAONw+x3JwfXkA/hW9UM0bvLbsqRMEkLMXGSo2sMr6HJA+hNTUAFFFFABRRRQAUUUUAFFFFABRRRQAUUUUAFFFFABRRRQAUUUUAFFFFABRRRQAUUUUAFFFFABWDr8jprXhZVdlD6o6sAcbh9juTg+vIB/Ct6oZo3eW3ZUiYJIWYuMlRtYZX0OSB9CaAJqKKKACiiigAooooAKKKKACiiigAooooAKKKKACiiigAooooAKKKKACiiigAooooAKKKKACiiigAooooAKKKKACiiigArBu5HHj7SIw7BG0u+YrngkS2mDj2yfzNb1QtG5vIpAkRRY3UsR84JK4APocHP0WgCaiiigDn/ABD/AMhzwn/2FZP/AEiuq6Cuf8Q/8hzwn/2FZP8A0iuq6CgAooooAKKKKACiiigAooooAKKKKACiiigAooooAKKKKACiiigAooooAKKKKACiiigAooooAKKKKACiiigAooooAKKKKACiiigAooooAKKKKACiiigAooooAKKKKACiiigAooooAKKKKACiiigAooooAKKKKACiiigAooooAK5/xD/yHPCf/YVk/wDSK6roK5/xD/yHPCf/AGFZP/SK6oA6CiiigAooooAKKKKACiiigAooooAKKKKACiiigAooooAKKKKACiiigAooooAKKKKACiiigAooooAKKKKACiiigAooooAKKKKACiiigAooooAKKKKACiiigAooooAKKKKACiiigAooooAKKKKACiiigAooooAKKKKACiiigAooooAKKKKACiiigAooooA5/wAQ/wDIc8J/9hWT/wBIrqugrn/EP/Ic8J/9hWT/ANIrqugoAKKKKACiiigAooooAKKKKACiiigAooooAKKKKACiiigAooooAKKKKACiiigAooooAKKKKACiiigAooooAKKKKACiiigAooooAKKKKACiiigAooooAKKKKACiiigAooooAKKKKACiiigAooooAKKKKACiiigAooooAKKKKACuf8Q/8hzwn/2FZP8A0iuq6Cuf8Q/8hzwn/wBhWT/0iuqAOgooooAKKKKACiiigAooooAKKKKACiiigAooooAKKKKACiiigAooooAKKKKACiiigAooooAKKKKACiiigAooooAKKKKACiiigAooooAKKKKACiiigAooooAKKKKACiiigAooooAKKKKACiiigAooooAKKKKACiiigAooooAKKKKACiiigAooooAKKKKAOf8AEP8AyHPCf/YVk/8ASK6roK5/xD/yHPCf/YVk/wDSK6roKACiiigAooooAKKKKACiiigAooooAKKKKACiiigAooooAKKKKACiiigAooooAKKKKACiiigAooooAKKKKACiiigAooooAKKKKACiiigAooooAKKKKACiiigAooooAKKKKACiiigAooooAKKKKACiiigAooooAKKKKACiiigArn/EP/Ic8J/9hWT/ANIrqugrn/EP/Ic8J/8AYVk/9IrqgDoKKKKACiiigAooooAKKKKACiiigAooooAKKKKACiiigAooooAKKKKACiiigAooooAKKKKACiiigAooooAKKKKACiiigAooooAKKKKACiiigAooooAKKKKACiiigAooooAKKKKACiiigAooooAKKKKACiiigAooooAKKKKACiiigAooooAKKKKACiiigDn/ABD/AMhzwn/2FZP/AEiuq6Cuf8Q/8hzwn/2FZP8A0iuq6CgAooooAKKKKACiiigAooooAKKKKACiiigAooooAKKKKACiiigAooooAKKKKACiiigAooooAKKKKACiiigAooooAKKKKACiiigAooooAKKKKACiiigAooooAKKKKACiiigAooooAKKKKACiiigAooooAKKKKACiiigAooooAK5/xD/yHPCf/YVk/wDSK6roK5/xD/yHPCf/AGFZP/SK6oA6CiiigAooooAKKKKACiiigAooooAKKKKACiiigAooooAKKKKACiiigAooooAKKKKACiiigAooooAKKKKACiiigAooooAKKKKACiiigAooooAKKKKACiiigAooooAKKKKACiiigAooooAKKKKACiiigAooooAKKKKACiiigAooooAKKKKACiiigAooooA5/wAQ/wDIc8J/9hWT/wBIrqugrn/EP/Ic8J/9hWT/ANIrqugoAKKKKACiiigAooooAKKKKACiiigAooooAKKKKACiiigAooooAKKKKACiiigAooooAKKKKACiiigAooooAKKKKACiiigAooooAKKKKACiiigAooooAKKKKACiiigAooooAKKKKACiiigAooooAKKKKACiiigAooooAKKKKACuf8Q/8hzwn/2FZP8A0iuq6Cuf8Q/8hzwn/wBhWT/0iuqAOgooooAKKKKACiiigAooooAKKKKACiiigAooooAKKKKACiiigAooooAKKKKACiiigAooooAKKKKACiiigAooooAKKKKACiiigAooooAKKKKACiiigAooooAKKKKACiiigAooooAKKKKACiiigAooooAKKKKACiiigAooooAKKKKACiiigAooooAKKKKAOf8AEP8AyHPCf/YVk/8ASK6roK5/xD/yHPCf/YVk/wDSK6roKACiiigAooooAKKKKACiiigAooooAKKKKACiiigAooooAKKKKACiiigAooooAKKKKACiiigAooooAKKKKACiiigAooooAKKKKACiiigAooooAKKKKACiiigAooooAKKKKACiiigAooooAKKKKACiiigAooooAKKKKACiiigArn/EP/Ic8J/9hWT/ANIrqugrn/EP/Ic8J/8AYVk/9IrqgDoKKKKACiiigAooooAKKKKACiiigAooooAKKKKACiiigAooooAKKKKACiiigAooooAKKKKACiiigAooooAKKKKACiiigAooooAKKKKACiiigAooooAKKKKACiiigAooooAKKKKACiiigAooooAKKKKACiiigAooooAKKKKACiiigAooooAKKKKACiiigDn/ABD/AMhzwn/2FZP/AEiuq6Cuf8Q/8hzwn/2FZP8A0iuq6CgAooooAKKKKACiiigAooooAKKKKACiiigAooooAKKKKACiiigAooooAKKKKACiiigAooooAKKKKACiiigAooooAKKKKACiiigAooooAKKKKACiiigAooooAKKKKACiiigAooooAKKKKACiiigAooooAKKKKACiiigAooooAK5/xD/yHPCf/YVk/wDSK6roKw/EVhqN1Lo93pcVrNPp96bgxXU7Qq6mCWLG5Ucg5lB+72oA3KK5/wC2eMP+gFof/g5m/wDkWj7Z4w/6AWh/+Dmb/wCRaAOgorn/ALZ4w/6AWh/+Dmb/AORaPtnjD/oBaH/4OZv/AJFoA6Ciuf8AtnjD/oBaH/4OZv8A5Fo+2eMP+gFof/g5m/8AkWgDoKK5/wC2eMP+gFof/g5m/wDkWj7Z4w/6AWh/+Dmb/wCRaAOgorn/ALZ4w/6AWh/+Dmb/AORaPtnjD/oBaH/4OZv/AJFoA6Ciuf8AtnjD/oBaH/4OZv8A5Fo+2eMP+gFof/g5m/8AkWgDoKK5/wC2eMP+gFof/g5m/wDkWj7Z4w/6AWh/+Dmb/wCRaAOgorn/ALZ4w/6AWh/+Dmb/AORaPtnjD/oBaH/4OZv/AJFoA6Ciuf8AtnjD/oBaH/4OZv8A5Fo+2eMP+gFof/g5m/8AkWgDoKK5/wC2eMP+gFof/g5m/wDkWj7Z4w/6AWh/+Dmb/wCRaAOgorn/ALZ4w/6AWh/+Dmb/AORaPtnjD/oBaH/4OZv/AJFoA6Ciuf8AtnjD/oBaH/4OZv8A5Fo+2eMP+gFof/g5m/8AkWgDoKK5/wC2eMP+gFof/g5m/wDkWj7Z4w/6AWh/+Dmb/wCRaAOgorn/ALZ4w/6AWh/+Dmb/AORaPtnjD/oBaH/4OZv/AJFoA6Ciuf8AtnjD/oBaH/4OZv8A5Fo+2eMP+gFof/g5m/8AkWgDoKK5/wC2eMP+gFof/g5m/wDkWj7Z4w/6AWh/+Dmb/wCRaAOgorn/ALZ4w/6AWh/+Dmb/AORaPtnjD/oBaH/4OZv/AJFoA6Ciuf8AtnjD/oBaH/4OZv8A5Fo+2eMP+gFof/g5m/8AkWgDoKK5/wC2eMP+gFof/g5m/wDkWj7Z4w/6AWh/+Dmb/wCRaAOgorn/ALZ4w/6AWh/+Dmb/AORaPtnjD/oBaH/4OZv/AJFoA6Ciuf8AtnjD/oBaH/4OZv8A5Fo+2eMP+gFof/g5m/8AkWgDoKK5/wC2eMP+gFof/g5m/wDkWj7Z4w/6AWh/+Dmb/wCRaAOgorn/ALZ4w/6AWh/+Dmb/AORaPtnjD/oBaH/4OZv/AJFoA6Ciuf8AtnjD/oBaH/4OZv8A5Fo+2eMP+gFof/g5m/8AkWgDoKK5/wC2eMP+gFof/g5m/wDkWj7Z4w/6AWh/+Dmb/wCRaAOgorn/ALZ4w/6AWh/+Dmb/AORaPtnjD/oBaH/4OZv/AJFoA6Ciuf8AtnjD/oBaH/4OZv8A5Fo+2eMP+gFof/g5m/8AkWgDoKK5/wC2eMP+gFof/g5m/wDkWj7Z4w/6AWh/+Dmb/wCRaAOgorn/ALZ4w/6AWh/+Dmb/AORaPtnjD/oBaH/4OZv/AJFoA6Ciuf8AtnjD/oBaH/4OZv8A5Fo+2eMP+gFof/g5m/8AkWgDoKK5/wC2eMP+gFof/g5m/wDkWj7Z4w/6AWh/+Dmb/wCRaAOgorn/ALZ4w/6AWh/+Dmb/AORaPtnjD/oBaH/4OZv/AJFoA6Ciuf8AtnjD/oBaH/4OZv8A5Fo+2eMP+gFof/g5m/8AkWgDoKK5/wC2eMP+gFof/g5m/wDkWj7Z4w/6AWh/+Dmb/wCRaAOgorn/ALZ4w/6AWh/+Dmb/AORaPtnjD/oBaH/4OZv/AJFoAPEP/Ic8J/8AYVk/9Irqugrl3tPEep6zo0+oWGlWltYXT3Ltb6hJO7ZgliChTAg6yg5z2rqKACiiigD/2Q==;" vertex="1" parent="1">
          <mxGeometry x="-10" y="30" width="1076" height="704" as="geometry" />
        </mxCell>
      </root>
    </mxGraphModel>
  </diagram>
</mxfile>
